<svg xmlns="http://www.w3.org/2000/svg" width="1920" height="1080"><path d="M473,1282L140,1289L751,1313Z" fill="#8e6e9c" stroke="#8e6e9c" stroke-width="1.51"/><path d="M751,1313L140,1289L918,1326Z" fill="#846898" stroke="#846898" stroke-width="1.51"/><path d="M1233,1325L918,1326L1322,1337Z" fill="#734484" stroke="#734484" stroke-width="1.51"/><path d="M616,-234L721,-233L1383,-261Z" fill="#c1cae2" stroke="#c1cae2" stroke-width="1.51"/><path d="M21,-261L616,-234L1383,-261Z" fill="#c8d9ea" stroke="#c8d9ea" stroke-width="1.51"/><path d="M1054,-218L1203,-225L1383,-261Z" fill="#bfb3d7" stroke="#bfb3d7" stroke-width="1.51"/><path d="M900,-223L1054,-218L1383,-261Z" fill="#bfbadb" stroke="#bfbadb" stroke-width="1.51"/><path d="M721,-233L900,-223L1383,-261Z" fill="#bfc3df" stroke="#bfc3df" stroke-width="1.51"/><path d="M21,-261L1383,-261L1493,-262Z" fill="#c0c6e1" stroke="#c0c6e1" stroke-width="1.51"/><path d="M1493,-262L1598,-234L1833,-241Z" fill="#bf97c7" stroke="#bf97c7" stroke-width="1.51"/><path d="M1638,1323L1322,1337L1931,1341Z" fill="#6e1f73" stroke="#6e1f73" stroke-width="1.51"/><path d="M1493,-262L1833,-241L2107,-258Z" fill="#be8ebd" stroke="#be8ebd" stroke-width="1.51"/><path d="M1983,-159L2084,-110L2107,-258Z" fill="#a67fa7" stroke="#a67fa7" stroke-width="1.51"/><path d="M2084,-110L2083,46L2107,-258Z" fill="#9f7ba2" stroke="#9f7ba2" stroke-width="1.51"/><path d="M2083,46L2053,195L2110,362Z" fill="#8b6c9a" stroke="#8b6c9a" stroke-width="1.51"/><path d="M2107,-258L2083,46L2110,362Z" fill="#94739d" stroke="#94739d" stroke-width="1.51"/><path d="M1928,1153L2037,1322L2118,1126Z" fill="#6c0869" stroke="#6c0869" stroke-width="1.51"/><path d="M1921,1033L2118,1126L2133,1013Z" fill="#711a73" stroke="#711a73" stroke-width="1.51"/><path d="M2110,362L2057,506L2136,861Z" fill="#754f89" stroke="#754f89" stroke-width="1.51"/><path d="M2057,506L2048,659L2136,861Z" fill="#754587" stroke="#754587" stroke-width="1.51"/><path d="M2107,-258L2110,362L2136,861Z" fill="#7f6494" stroke="#7f6494" stroke-width="1.51"/><path d="M2048,659L1918,807L2136,861Z" fill="#783b85" stroke="#783b85" stroke-width="1.51"/><path d="M1921,1033L2133,1013L2136,861Z" fill="#732479" stroke="#732479" stroke-width="1.51"/><path d="M1918,807L1921,1033L2136,861Z" fill="#7a2f83" stroke="#7a2f83" stroke-width="1.51"/><path d="M1983,531L2048,659L2057,506Z" fill="#7b5390" stroke="#7b5390" stroke-width="1.51"/><path d="M1979,132L2053,195L2083,46Z" fill="#9572a0" stroke="#9572a0" stroke-width="1.51"/><path d="M1918,-77L2083,46L2084,-110Z" fill="#a27ca7" stroke="#a27ca7" stroke-width="1.51"/><path d="M2053,195L1904,254L2110,362Z" fill="#8b6b9e" stroke="#8b6b9e" stroke-width="1.51"/><path d="M1929,430L2057,506L2110,362Z" fill="#815f96" stroke="#815f96" stroke-width="1.51"/><path d="M1921,1033L1928,1153L2118,1126Z" fill="#761575" stroke="#761575" stroke-width="1.51"/><path d="M1833,-241L1983,-159L2107,-258Z" fill="#b185af" stroke="#b185af" stroke-width="1.51"/><path d="M1904,254L1929,430L2110,362Z" fill="#8a689f" stroke="#8a689f" stroke-width="1.51"/><path d="M1903,739L1918,807L2048,659Z" fill="#80438e" stroke="#80438e" stroke-width="1.51"/><path d="M1918,-77L1979,132L2083,46Z" fill="#9f79a7" stroke="#9f79a7" stroke-width="1.51"/><path d="M1983,-159L1918,-77L2084,-110Z" fill="#a980ab" stroke="#a980ab" stroke-width="1.51"/><path d="M1928,1153L1931,1341L2037,1322Z" fill="#690665" stroke="#690665" stroke-width="1.51"/><path d="M1929,430L1983,531L2057,506Z" fill="#825c97" stroke="#825c97" stroke-width="1.51"/><path d="M1979,132L1904,254L2053,195Z" fill="#9571a3" stroke="#9571a3" stroke-width="1.51"/><path d="M1983,531L1903,739L2048,659Z" fill="#7f4c90" stroke="#7f4c90" stroke-width="1.51"/><path d="M1813,586L1810,692L1903,739Z" fill="#8a4f9b" stroke="#8a4f9b" stroke-width="1.51"/><path d="M1792,-63L1732,57L1918,-77Z" fill="#b185b8" stroke="#b185b8" stroke-width="1.51"/><path d="M1918,807L1751,881L1921,1033Z" fill="#85328e" stroke="#85328e" stroke-width="1.51"/><path d="M1928,1153L1805,1236L1931,1341Z" fill="#730a6f" stroke="#730a6f" stroke-width="1.51"/><path d="M1918,-77L1732,57L1979,132Z" fill="#aa7eb1" stroke="#aa7eb1" stroke-width="1.51"/><path d="M1833,-241L1918,-77L1983,-159Z" fill="#b485b4" stroke="#b485b4" stroke-width="1.51"/><path d="M1929,430L1813,586L1983,531Z" fill="#885c9d" stroke="#885c9d" stroke-width="1.51"/><path d="M1813,586L1903,739L1983,531Z" fill="#875299" stroke="#875299" stroke-width="1.51"/><path d="M1732,57L1904,254L1979,132Z" fill="#a378ae" stroke="#a378ae" stroke-width="1.51"/><path d="M1732,57L1746,227L1904,254Z" fill="#a27bb2" stroke="#a27bb2" stroke-width="1.51"/><path d="M1833,-241L1792,-63L1918,-77Z" fill="#b787b8" stroke="#b787b8" stroke-width="1.51"/><path d="M1751,881L1742,955L1921,1033Z" fill="#86308f" stroke="#86308f" stroke-width="1.51"/><path d="M1921,1033L1813,1096L1928,1153Z" fill="#80197e" stroke="#80197e" stroke-width="1.51"/><path d="M1904,254L1755,396L1929,430Z" fill="#956da9" stroke="#956da9" stroke-width="1.51"/><path d="M1755,396L1813,586L1929,430Z" fill="#8f65a5" stroke="#8f65a5" stroke-width="1.51"/><path d="M1805,1236L1638,1323L1931,1341Z" fill="#70126e" stroke="#70126e" stroke-width="1.51"/><path d="M1813,1096L1805,1236L1928,1153Z" fill="#81117c" stroke="#81117c" stroke-width="1.51"/><path d="M1742,955L1813,1096L1921,1033Z" fill="#842688" stroke="#842688" stroke-width="1.51"/><path d="M1746,227L1755,396L1904,254Z" fill="#9a75ae" stroke="#9a75ae" stroke-width="1.51"/><path d="M1903,739L1810,692L1918,807Z" fill="#874495" stroke="#874495" stroke-width="1.51"/><path d="M1810,692L1751,881L1918,807Z" fill="#884296" stroke="#884296" stroke-width="1.51"/><path d="M1686,792L1751,881L1810,692Z" fill="#89479a" stroke="#89479a" stroke-width="1.51"/><path d="M1755,396L1616,530L1813,586Z" fill="#8e68a9" stroke="#8e68a9" stroke-width="1.51"/><path d="M1664,-60L1792,-63L1833,-241Z" fill="#b88cbe" stroke="#b88cbe" stroke-width="1.51"/><path d="M1598,-234L1664,-60L1833,-241Z" fill="#bb92c2" stroke="#bb92c2" stroke-width="1.51"/><path d="M1746,227L1653,264L1755,396Z" fill="#9979b3" stroke="#9979b3" stroke-width="1.51"/><path d="M1685,681L1686,792L1810,692Z" fill="#8a509e" stroke="#8a509e" stroke-width="1.51"/><path d="M1685,681L1810,692L1813,586Z" fill="#8b55a0" stroke="#8b55a0" stroke-width="1.51"/><path d="M1616,530L1685,681L1813,586Z" fill="#8c5fa6" stroke="#8c5fa6" stroke-width="1.51"/><path d="M1742,955L1686,948L1813,1096Z" fill="#86308e" stroke="#86308e" stroke-width="1.51"/><path d="M1686,948L1581,1191L1813,1096Z" fill="#852b8b" stroke="#852b8b" stroke-width="1.51"/><path d="M1581,1191L1805,1236L1813,1096Z" fill="#811d81" stroke="#811d81" stroke-width="1.51"/><path d="M1664,-60L1732,57L1792,-63Z" fill="#b289bc" stroke="#b289bc" stroke-width="1.51"/><path d="M1581,1191L1638,1323L1805,1236Z" fill="#781f7b" stroke="#781f7b" stroke-width="1.51"/><path d="M1732,57L1609,59L1746,227Z" fill="#a784ba" stroke="#a784ba" stroke-width="1.51"/><path d="M1609,59L1653,264L1746,227Z" fill="#a282ba" stroke="#a282ba" stroke-width="1.51"/><path d="M1686,948L1742,955L1751,881Z" fill="#873995" stroke="#873995" stroke-width="1.51"/><path d="M1653,264L1583,442L1755,396Z" fill="#9577b4" stroke="#9577b4" stroke-width="1.51"/><path d="M1583,442L1616,530L1755,396Z" fill="#9070b0" stroke="#9070b0" stroke-width="1.51"/><path d="M1686,792L1686,948L1751,881Z" fill="#884199" stroke="#884199" stroke-width="1.51"/><path d="M1664,-60L1609,59L1732,57Z" fill="#ae8bbf" stroke="#ae8bbf" stroke-width="1.51"/><path d="M564,1285L473,1282L751,1313Z" fill="#87699a" stroke="#87699a" stroke-width="1.51"/><path d="M1513,1266L1322,1337L1638,1323Z" fill="#722b7c" stroke="#722b7c" stroke-width="1.51"/><path d="M1609,59L1474,79L1653,264Z" fill="#a689c0" stroke="#a689c0" stroke-width="1.51"/><path d="M1616,530L1532,722L1685,681Z" fill="#8c5fa9" stroke="#8c5fa9" stroke-width="1.51"/><path d="M1537,792L1456,946L1686,948Z" fill="#8947a0" stroke="#8947a0" stroke-width="1.51"/><path d="M1486,1155L1581,1191L1686,948Z" fill="#863190" stroke="#863190" stroke-width="1.51"/><path d="M1456,946L1486,1155L1686,948Z" fill="#873d98" stroke="#873d98" stroke-width="1.51"/><path d="M1685,681L1532,722L1686,792Z" fill="#8a54a3" stroke="#8a54a3" stroke-width="1.51"/><path d="M1532,722L1537,792L1686,792Z" fill="#8a53a4" stroke="#8a53a4" stroke-width="1.51"/><path d="M1537,792L1686,948L1686,792Z" fill="#89489d" stroke="#89489d" stroke-width="1.51"/><path d="M1539,519L1532,722L1616,530Z" fill="#8c68af" stroke="#8c68af" stroke-width="1.51"/><path d="M1531,434L1583,442L1653,264Z" fill="#957ab8" stroke="#957ab8" stroke-width="1.51"/><path d="M1462,279L1531,434L1653,264Z" fill="#9781bc" stroke="#9781bc" stroke-width="1.51"/><path d="M1474,79L1462,279L1653,264Z" fill="#a189c0" stroke="#a189c0" stroke-width="1.51"/><path d="M1447,-44L1609,59L1664,-60Z" fill="#b292c6" stroke="#b292c6" stroke-width="1.51"/><path d="M1598,-234L1447,-44L1664,-60Z" fill="#b897c8" stroke="#b897c8" stroke-width="1.51"/><path d="M1581,1191L1513,1266L1638,1323Z" fill="#78277e" stroke="#78277e" stroke-width="1.51"/><path d="M1493,-262L1447,-44L1598,-234Z" fill="#bc9dcc" stroke="#bc9dcc" stroke-width="1.51"/><path d="M1447,-44L1474,79L1609,59Z" fill="#ae94c6" stroke="#ae94c6" stroke-width="1.51"/><path d="M1583,442L1539,519L1616,530Z" fill="#8f70b2" stroke="#8f70b2" stroke-width="1.51"/><path d="M1531,434L1539,519L1583,442Z" fill="#9075b5" stroke="#9075b5" stroke-width="1.51"/><path d="M1486,1155L1513,1266L1581,1191Z" fill="#7f2d88" stroke="#7f2d88" stroke-width="1.51"/><path d="M1383,-261L1447,-44L1493,-262Z" fill="#bca2cf" stroke="#bca2cf" stroke-width="1.51"/><path d="M1462,279L1335,389L1531,434Z" fill="#9585be" stroke="#9585be" stroke-width="1.51"/><path d="M1532,722L1364,787L1537,792Z" fill="#8b5aa8" stroke="#8b5aa8" stroke-width="1.51"/><path d="M1364,787L1456,946L1537,792Z" fill="#8b55a6" stroke="#8b55a6" stroke-width="1.51"/><path d="M1531,434L1335,389L1539,519Z" fill="#917cb9" stroke="#917cb9" stroke-width="1.51"/><path d="M1335,389L1285,584L1539,519Z" fill="#8f7db9" stroke="#8f7db9" stroke-width="1.51"/><path d="M1355,726L1532,722L1539,519Z" fill="#8c67ae" stroke="#8c67ae" stroke-width="1.51"/><path d="M1285,584L1355,726L1539,519Z" fill="#8d71b3" stroke="#8d71b3" stroke-width="1.51"/><path d="M1456,946L1329,1150L1486,1155Z" fill="#883f97" stroke="#883f97" stroke-width="1.51"/><path d="M1355,726L1364,787L1532,722Z" fill="#8b61ac" stroke="#8b61ac" stroke-width="1.51"/><path d="M1358,939L1329,1150L1456,946Z" fill="#89499e" stroke="#89499e" stroke-width="1.51"/><path d="M1287,133L1462,279L1474,79Z" fill="#a493c5" stroke="#a493c5" stroke-width="1.51"/><path d="M1486,1155L1329,1150L1513,1266Z" fill="#82358c" stroke="#82358c" stroke-width="1.51"/><path d="M1329,1150L1322,1337L1513,1266Z" fill="#7b3686" stroke="#7b3686" stroke-width="1.51"/><path d="M1383,-261L1279,-79L1447,-44Z" fill="#b9a4d0" stroke="#b9a4d0" stroke-width="1.51"/><path d="M1364,787L1358,939L1456,946Z" fill="#8b54a5" stroke="#8b54a5" stroke-width="1.51"/><path d="M1287,133L1281,230L1462,279Z" fill="#a094c6" stroke="#a094c6" stroke-width="1.51"/><path d="M1237,63L1287,133L1447,-44Z" fill="#ad9fcc" stroke="#ad9fcc" stroke-width="1.51"/><path d="M1447,-44L1287,133L1474,79Z" fill="#ac99c9" stroke="#ac99c9" stroke-width="1.51"/><path d="M1279,-79L1237,63L1447,-44Z" fill="#b3a3ce" stroke="#b3a3ce" stroke-width="1.51"/><path d="M1281,230L1335,389L1462,279Z" fill="#9a8fc3" stroke="#9a8fc3" stroke-width="1.51"/><path d="M21,-261L233,-211L616,-234Z" fill="#dce8f2" stroke="#dce8f2" stroke-width="1.51"/><path d="M1233,1325L1322,1337L1329,1150Z" fill="#793c87" stroke="#793c87" stroke-width="1.51"/><path d="M1197,1139L1329,1150L1358,939Z" fill="#894a9c" stroke="#894a9c" stroke-width="1.51"/><path d="M1145,994L1197,1139L1358,939Z" fill="#8a53a2" stroke="#8a53a2" stroke-width="1.51"/><path d="M1175,839L1358,939L1364,787Z" fill="#8b5eaa" stroke="#8b5eaa" stroke-width="1.51"/><path d="M1203,-225L1279,-79L1383,-261Z" fill="#bdacd4" stroke="#bdacd4" stroke-width="1.51"/><path d="M1281,230L1200,264L1335,389Z" fill="#9994c6" stroke="#9994c6" stroke-width="1.51"/><path d="M1133,420L1285,584L1335,389Z" fill="#9088bf" stroke="#9088bf" stroke-width="1.51"/><path d="M1285,584L1211,677L1355,726Z" fill="#8d73b4" stroke="#8d73b4" stroke-width="1.51"/><path d="M1355,726L1211,677L1364,787Z" fill="#8c69b0" stroke="#8c69b0" stroke-width="1.51"/><path d="M1211,677L1175,839L1364,787Z" fill="#8c6ab0" stroke="#8c6ab0" stroke-width="1.51"/><path d="M1197,1139L1233,1325L1329,1150Z" fill="#824390" stroke="#824390" stroke-width="1.51"/><path d="M1175,839L1145,994L1358,939Z" fill="#8b5ca9" stroke="#8b5ca9" stroke-width="1.51"/><path d="M1200,264L1133,420L1335,389Z" fill="#9594c6" stroke="#9594c6" stroke-width="1.51"/><path d="M1184,-30L1237,63L1279,-79Z" fill="#b2a8d1" stroke="#b2a8d1" stroke-width="1.51"/><path d="M1133,420L1149,577L1285,584Z" fill="#8e87be" stroke="#8e87be" stroke-width="1.51"/><path d="M1065,1261L918,1326L1233,1325Z" fill="#774c8a" stroke="#774c8a" stroke-width="1.51"/><path d="M1203,-225L1184,-30L1279,-79Z" fill="#b8aed4" stroke="#b8aed4" stroke-width="1.51"/><path d="M1149,577L1211,677L1285,584Z" fill="#8d7db9" stroke="#8d7db9" stroke-width="1.51"/><path d="M1200,264L1281,230L1287,133Z" fill="#a09bc9" stroke="#a09bc9" stroke-width="1.51"/><path d="M1237,63L1200,264L1287,133Z" fill="#a49ecb" stroke="#a49ecb" stroke-width="1.51"/><path d="M1029,-88L1184,-30L1203,-225Z" fill="#b9b5d7" stroke="#b9b5d7" stroke-width="1.51"/><path d="M1054,-218L1029,-88L1203,-225Z" fill="#bcbada" stroke="#bcbada" stroke-width="1.51"/><path d="M1054,708L1175,839L1211,677Z" fill="#8d74b5" stroke="#8d74b5" stroke-width="1.51"/><path d="M1197,1139L1065,1261L1233,1325Z" fill="#7f488f" stroke="#7f488f" stroke-width="1.51"/><path d="M1184,-30L1012,132L1237,63Z" fill="#acabd2" stroke="#acabd2" stroke-width="1.51"/><path d="M1012,132L1044,202L1237,63Z" fill="#a6a9d1" stroke="#a6a9d1" stroke-width="1.51"/><path d="M1044,202L1200,264L1237,63Z" fill="#a3a3cd" stroke="#a3a3cd" stroke-width="1.51"/><path d="M1037,1166L1065,1261L1197,1139Z" fill="#865098" stroke="#865098" stroke-width="1.51"/><path d="M1149,577L1054,708L1211,677Z" fill="#8d7eba" stroke="#8d7eba" stroke-width="1.51"/><path d="M233,-211L479,-205L616,-234Z" fill="#d3e2ee" stroke="#d3e2ee" stroke-width="1.51"/><path d="M1145,994L1037,1166L1197,1139Z" fill="#8a549f" stroke="#8a549f" stroke-width="1.51"/><path d="M1011,392L1133,420L1200,264Z" fill="#959bc9" stroke="#959bc9" stroke-width="1.51"/><path d="M1044,202L1011,392L1200,264Z" fill="#9aa2cd" stroke="#9aa2cd" stroke-width="1.51"/><path d="M1133,420L1066,570L1149,577Z" fill="#8e8dc1" stroke="#8e8dc1" stroke-width="1.51"/><path d="M1029,-88L1012,132L1184,-30Z" fill="#b0b3d6" stroke="#b0b3d6" stroke-width="1.51"/><path d="M993,1035L1037,1166L1145,994Z" fill="#8c5da5" stroke="#8c5da5" stroke-width="1.51"/><path d="M994,862L1145,994L1175,839Z" fill="#8c68af" stroke="#8c68af" stroke-width="1.51"/><path d="M1066,570L1054,708L1149,577Z" fill="#8d85bd" stroke="#8d85bd" stroke-width="1.51"/><path d="M1054,708L994,862L1175,839Z" fill="#8d73b4" stroke="#8d73b4" stroke-width="1.51"/><path d="M1011,392L1066,570L1133,420Z" fill="#9095c6" stroke="#9095c6" stroke-width="1.51"/><path d="M994,862L993,1035L1145,994Z" fill="#8c66ad" stroke="#8c66ad" stroke-width="1.51"/><path d="M905,996L993,1035L994,862Z" fill="#8d6cb0" stroke="#8d6cb0" stroke-width="1.51"/><path d="M874,-36L879,110L1012,132Z" fill="#abbada" stroke="#abbada" stroke-width="1.51"/><path d="M874,-36L1012,132L1029,-88Z" fill="#b0bad9" stroke="#b0bad9" stroke-width="1.51"/><path d="M916,275L1011,392L1044,202Z" fill="#99a9d0" stroke="#99a9d0" stroke-width="1.51"/><path d="M900,-223L1029,-88L1054,-218Z" fill="#bcc1de" stroke="#bcc1de" stroke-width="1.51"/><path d="M870,803L994,862L1054,708Z" fill="#8c7bb9" stroke="#8c7bb9" stroke-width="1.51"/><path d="M1037,1166L899,1186L1065,1261Z" fill="#855799" stroke="#855799" stroke-width="1.51"/><path d="M856,691L1054,708L1066,570Z" fill="#8d88bf" stroke="#8d88bf" stroke-width="1.51"/><path d="M896,485L856,691L1066,570Z" fill="#8d93c5" stroke="#8d93c5" stroke-width="1.51"/><path d="M1011,392L896,485L1066,570Z" fill="#8f99c8" stroke="#8f99c8" stroke-width="1.51"/><path d="M899,1186L918,1326L1065,1261Z" fill="#7e5694" stroke="#7e5694" stroke-width="1.51"/><path d="M856,691L870,803L1054,708Z" fill="#8e84bd" stroke="#8e84bd" stroke-width="1.51"/><path d="M993,1035L899,1186L1037,1166Z" fill="#8b5ea2" stroke="#8b5ea2" stroke-width="1.51"/><path d="M1012,132L916,275L1044,202Z" fill="#a0aed3" stroke="#a0aed3" stroke-width="1.51"/><path d="M916,275L900,383L1011,392Z" fill="#95a8cf" stroke="#95a8cf" stroke-width="1.51"/><path d="M900,-223L874,-36L1029,-88Z" fill="#b9c3df" stroke="#b9c3df" stroke-width="1.51"/><path d="M900,383L896,485L1011,392Z" fill="#93a2cd" stroke="#93a2cd" stroke-width="1.51"/><path d="M879,110L916,275L1012,132Z" fill="#a3b3d6" stroke="#a3b3d6" stroke-width="1.51"/><path d="M905,996L899,1186L993,1035Z" fill="#8d65a9" stroke="#8d65a9" stroke-width="1.51"/><path d="M870,803L905,996L994,862Z" fill="#8e76b5" stroke="#8e76b5" stroke-width="1.51"/><path d="M21,-261L141,-224L233,-211Z" fill="#e5eff6" stroke="#e5eff6" stroke-width="1.51"/><path d="M737,553L856,691L896,485Z" fill="#909ac8" stroke="#909ac8" stroke-width="1.51"/><path d="M767,-88L874,-36L900,-223Z" fill="#bcc9e2" stroke="#bcc9e2" stroke-width="1.51"/><path d="M870,803L682,970L905,996Z" fill="#9279b7" stroke="#9279b7" stroke-width="1.51"/><path d="M695,1164L899,1186L905,996Z" fill="#9068a8" stroke="#9068a8" stroke-width="1.51"/><path d="M682,970L695,1164L905,996Z" fill="#9372b0" stroke="#9372b0" stroke-width="1.51"/><path d="M879,110L761,144L916,275Z" fill="#a5b9d8" stroke="#a5b9d8" stroke-width="1.51"/><path d="M705,340L900,383L916,275Z" fill="#99b0d4" stroke="#99b0d4" stroke-width="1.51"/><path d="M899,1186L751,1313L918,1326Z" fill="#7f5c95" stroke="#7f5c95" stroke-width="1.51"/><path d="M737,553L744,660L856,691Z" fill="#9297c7" stroke="#9297c7" stroke-width="1.51"/><path d="M761,144L706,186L916,275Z" fill="#a5bbd9" stroke="#a5bbd9" stroke-width="1.51"/><path d="M706,186L705,340L916,275Z" fill="#a0b8d8" stroke="#a0b8d8" stroke-width="1.51"/><path d="M705,340L737,553L896,485Z" fill="#95a9d0" stroke="#95a9d0" stroke-width="1.51"/><path d="M721,-233L767,-88L900,-223Z" fill="#c1cfe4" stroke="#c1cfe4" stroke-width="1.51"/><path d="M705,340L896,485L900,383Z" fill="#96aad0" stroke="#96aad0" stroke-width="1.51"/><path d="M686,801L682,970L870,803Z" fill="#9484bd" stroke="#9484bd" stroke-width="1.51"/><path d="M874,-36L761,144L879,110Z" fill="#aebfdc" stroke="#aebfdc" stroke-width="1.51"/><path d="M695,1164L751,1313L899,1186Z" fill="#89649e" stroke="#89649e" stroke-width="1.51"/><path d="M744,660L686,801L856,691Z" fill="#9390c3" stroke="#9390c3" stroke-width="1.51"/><path d="M856,691L686,801L870,803Z" fill="#9289bf" stroke="#9289bf" stroke-width="1.51"/><path d="M767,-88L761,144L874,-36Z" fill="#b4c6e0" stroke="#b4c6e0" stroke-width="1.51"/><path d="M682,970L582,1030L695,1164Z" fill="#9778b3" stroke="#9778b3" stroke-width="1.51"/><path d="M705,340L611,514L737,553Z" fill="#98aed2" stroke="#98aed2" stroke-width="1.51"/><path d="M695,1164L630,1168L751,1313Z" fill="#8d6aa2" stroke="#8d6aa2" stroke-width="1.51"/><path d="M620,78L706,186L761,144Z" fill="#adc4df" stroke="#adc4df" stroke-width="1.51"/><path d="M721,-233L616,-234L767,-88Z" fill="#c4d5e8" stroke="#c4d5e8" stroke-width="1.51"/><path d="M616,-234L612,-22L767,-88Z" fill="#c1d5e8" stroke="#c1d5e8" stroke-width="1.51"/><path d="M620,78L761,144L767,-88Z" fill="#b4c9e1" stroke="#b4c9e1" stroke-width="1.51"/><path d="M612,-22L620,78L767,-88Z" fill="#bacfe5" stroke="#bacfe5" stroke-width="1.51"/><path d="M630,1168L564,1285L751,1313Z" fill="#896a9e" stroke="#896a9e" stroke-width="1.51"/><path d="M578,876L682,970L686,801Z" fill="#9787bf" stroke="#9787bf" stroke-width="1.51"/><path d="M598,291L705,340L706,186Z" fill="#a3bfdb" stroke="#a3bfdb" stroke-width="1.51"/><path d="M737,553L597,656L744,660Z" fill="#959ecb" stroke="#959ecb" stroke-width="1.51"/><path d="M597,656L686,801L744,660Z" fill="#9697c7" stroke="#9697c7" stroke-width="1.51"/><path d="M582,1030L630,1168L695,1164Z" fill="#9873ae" stroke="#9873ae" stroke-width="1.51"/><path d="M611,514L597,656L737,553Z" fill="#96a6ce" stroke="#96a6ce" stroke-width="1.51"/><path d="M536,416L611,514L705,340Z" fill="#9db5d6" stroke="#9db5d6" stroke-width="1.51"/><path d="M598,291L536,416L705,340Z" fill="#a0bcdb" stroke="#a0bcdb" stroke-width="1.51"/><path d="M620,78L598,291L706,186Z" fill="#abc5df" stroke="#abc5df" stroke-width="1.51"/><path d="M597,656L578,876L686,801Z" fill="#9992c5" stroke="#9992c5" stroke-width="1.51"/><path d="M274,1248L140,1289L473,1282Z" fill="#9975a2" stroke="#9975a2" stroke-width="1.51"/><path d="M479,-205L612,-22L616,-234Z" fill="#c8daeb" stroke="#c8daeb" stroke-width="1.51"/><path d="M578,876L582,1030L682,970Z" fill="#9981bc" stroke="#9981bc" stroke-width="1.51"/><path d="M393,815L578,876L597,656Z" fill="#9e95c6" stroke="#9e95c6" stroke-width="1.51"/><path d="M488,60L397,210L598,291Z" fill="#b3cae2" stroke="#b3cae2" stroke-width="1.51"/><path d="M481,510L597,656L611,514Z" fill="#9baad1" stroke="#9baad1" stroke-width="1.51"/><path d="M479,-205L448,-6L612,-22Z" fill="#c7d9ea" stroke="#c7d9ea" stroke-width="1.51"/><path d="M612,-22L488,60L620,78Z" fill="#bbd0e4" stroke="#bbd0e4" stroke-width="1.51"/><path d="M488,60L598,291L620,78Z" fill="#b3cae2" stroke="#b3cae2" stroke-width="1.51"/><path d="M582,1030L440,1130L630,1168Z" fill="#9c77b0" stroke="#9c77b0" stroke-width="1.51"/><path d="M440,1130L564,1285L630,1168Z" fill="#9771a8" stroke="#9771a8" stroke-width="1.51"/><path d="M440,1130L473,1282L564,1285Z" fill="#9570a4" stroke="#9570a4" stroke-width="1.51"/><path d="M578,876L485,1021L582,1030Z" fill="#9c82bb" stroke="#9c82bb" stroke-width="1.51"/><path d="M397,663L393,815L597,656Z" fill="#a19ecb" stroke="#a19ecb" stroke-width="1.51"/><path d="M485,1021L440,1130L582,1030Z" fill="#9f7db6" stroke="#9f7db6" stroke-width="1.51"/><path d="M536,416L481,510L611,514Z" fill="#9eb3d5" stroke="#9eb3d5" stroke-width="1.51"/><path d="M448,-6L488,60L612,-22Z" fill="#c0d4e7" stroke="#c0d4e7" stroke-width="1.51"/><path d="M481,510L397,663L597,656Z" fill="#9fa8d0" stroke="#9fa8d0" stroke-width="1.51"/><path d="M397,210L536,416L598,291Z" fill="#a9c3de" stroke="#a9c3de" stroke-width="1.51"/><path d="M397,210L450,433L536,416Z" fill="#a8c1dd" stroke="#a8c1dd" stroke-width="1.51"/><path d="M393,815L485,1021L578,876Z" fill="#a08bc1" stroke="#a08bc1" stroke-width="1.51"/><path d="M450,433L481,510L536,416Z" fill="#a3b7d7" stroke="#a3b7d7" stroke-width="1.51"/><path d="M397,210L268,276L450,433Z" fill="#b0c8e1" stroke="#b0c8e1" stroke-width="1.51"/><path d="M268,276L296,427L450,433Z" fill="#aec4df" stroke="#aec4df" stroke-width="1.51"/><path d="M440,1130L274,1248L473,1282Z" fill="#9b74a7" stroke="#9b74a7" stroke-width="1.51"/><path d="M261,-102L448,-6L479,-205Z" fill="#cfdfed" stroke="#cfdfed" stroke-width="1.51"/><path d="M338,558L397,663L481,510Z" fill="#a3aed3" stroke="#a3aed3" stroke-width="1.51"/><path d="M393,815L278,969L485,1021Z" fill="#a58bc2" stroke="#a58bc2" stroke-width="1.51"/><path d="M448,-6L245,104L488,60Z" fill="#c3d6e8" stroke="#c3d6e8" stroke-width="1.51"/><path d="M245,104L397,210L488,60Z" fill="#bed2e5" stroke="#bed2e5" stroke-width="1.51"/><path d="M278,969L440,1130L485,1021Z" fill="#a482b9" stroke="#a482b9" stroke-width="1.51"/><path d="M450,433L338,558L481,510Z" fill="#a4b5d7" stroke="#a4b5d7" stroke-width="1.51"/><path d="M233,-211L261,-102L479,-205Z" fill="#d7e4f0" stroke="#d7e4f0" stroke-width="1.51"/><path d="M278,969L248,1129L440,1130Z" fill="#a882b8" stroke="#a882b8" stroke-width="1.51"/><path d="M296,427L338,558L450,433Z" fill="#a9bada" stroke="#a9bada" stroke-width="1.51"/><path d="M248,1129L274,1248L440,1130Z" fill="#a57aaf" stroke="#a57aaf" stroke-width="1.51"/><path d="M261,-102L245,104L448,-6Z" fill="#ccdceb" stroke="#ccdceb" stroke-width="1.51"/><path d="M290,676L235,797L393,815Z" fill="#aa9fcc" stroke="#aa9fcc" stroke-width="1.51"/><path d="M235,797L278,969L393,815Z" fill="#a996c7" stroke="#a996c7" stroke-width="1.51"/><path d="M245,104L268,276L397,210Z" fill="#bdd1e6" stroke="#bdd1e6" stroke-width="1.51"/><path d="M290,676L393,815L397,663Z" fill="#a6a1cd" stroke="#a6a1cd" stroke-width="1.51"/><path d="M338,558L290,676L397,663Z" fill="#a7abd2" stroke="#a7abd2" stroke-width="1.51"/><path d="M173,670L290,676L338,558Z" fill="#abaed3" stroke="#abaed3" stroke-width="1.51"/><path d="M111,577L173,670L338,558Z" fill="#afb4d6" stroke="#afb4d6" stroke-width="1.51"/><path d="M296,427L111,577L338,558Z" fill="#adbad9" stroke="#adbad9" stroke-width="1.51"/><path d="M94,-54L245,104L261,-102Z" fill="#d3e2ee" stroke="#d3e2ee" stroke-width="1.51"/><path d="M245,104L134,203L268,276Z" fill="#c2d5e7" stroke="#c2d5e7" stroke-width="1.51"/><path d="M133,934L248,1129L278,969Z" fill="#ad8bc0" stroke="#ad8bc0" stroke-width="1.51"/><path d="M235,797L133,934L278,969Z" fill="#ae95c7" stroke="#ae95c7" stroke-width="1.51"/><path d="M173,670L235,797L290,676Z" fill="#ada7d0" stroke="#ada7d0" stroke-width="1.51"/><path d="M141,380L111,577L296,427Z" fill="#b3c3de" stroke="#b3c3de" stroke-width="1.51"/><path d="M268,276L141,380L296,427Z" fill="#b5cae1" stroke="#b5cae1" stroke-width="1.51"/><path d="M133,934L91,1137L248,1129Z" fill="#b189bc" stroke="#b189bc" stroke-width="1.51"/><path d="M248,1129L140,1289L274,1248Z" fill="#a47bab" stroke="#a47bab" stroke-width="1.51"/><path d="M94,-54L91,108L245,104Z" fill="#d1e0ed" stroke="#d1e0ed" stroke-width="1.51"/><path d="M99,876L133,934L235,797Z" fill="#b19bca" stroke="#b19bca" stroke-width="1.51"/><path d="M91,1137L140,1289L248,1129Z" fill="#ac80b1" stroke="#ac80b1" stroke-width="1.51"/><path d="M233,-211L141,-224L261,-102Z" fill="#dde9f3" stroke="#dde9f3" stroke-width="1.51"/><path d="M134,203L141,380L268,276Z" fill="#bdd1e6" stroke="#bdd1e6" stroke-width="1.51"/><path d="M141,-224L94,-54L261,-102Z" fill="#dde9f2" stroke="#dde9f2" stroke-width="1.51"/><path d="M91,108L134,203L245,104Z" fill="#c9dbea" stroke="#c9dbea" stroke-width="1.51"/><path d="M173,670L99,876L235,797Z" fill="#b1a2ce" stroke="#b1a2ce" stroke-width="1.51"/><path d="M18,737L99,876L173,670Z" fill="#b5a7d1" stroke="#b5a7d1" stroke-width="1.51"/><path d="M-4,1019L91,1137L133,934Z" fill="#b58fc1" stroke="#b58fc1" stroke-width="1.51"/><path d="M38,514L111,577L141,380Z" fill="#b6c3df" stroke="#b6c3df" stroke-width="1.51"/><path d="M10,-78L94,-54L141,-224Z" fill="#e1ecf4" stroke="#e1ecf4" stroke-width="1.51"/><path d="M111,577L18,737L173,670Z" fill="#b5b2d6" stroke="#b5b2d6" stroke-width="1.51"/><path d="M91,1137L-55,1271L140,1289Z" fill="#aa80ad" stroke="#aa80ad" stroke-width="1.51"/><path d="M-57,412L38,514L141,380Z" fill="#bbcae2" stroke="#bbcae2" stroke-width="1.51"/><path d="M134,203L-57,192L141,380Z" fill="#c5d7e9" stroke="#c5d7e9" stroke-width="1.51"/><path d="M-57,192L-57,412L141,380Z" fill="#c2d6e8" stroke="#c2d6e8" stroke-width="1.51"/><path d="M21,-261L10,-78L141,-224Z" fill="#e6f0f6" stroke="#e6f0f6" stroke-width="1.51"/><path d="M-36,79L91,108L94,-54Z" fill="#d7e5f0" stroke="#d7e5f0" stroke-width="1.51"/><path d="M18,737L-21,812L99,876Z" fill="#b7a5d0" stroke="#b7a5d0" stroke-width="1.51"/><path d="M91,108L-57,192L134,203Z" fill="#cdddec" stroke="#cdddec" stroke-width="1.51"/><path d="M99,876L-4,1019L133,934Z" fill="#b597c8" stroke="#b597c8" stroke-width="1.51"/><path d="M-40,1132L-55,1271L91,1137Z" fill="#b485b5" stroke="#b485b5" stroke-width="1.51"/><path d="M10,-78L-36,79L94,-54Z" fill="#dde9f2" stroke="#dde9f2" stroke-width="1.51"/><path d="M38,514L18,737L111,577Z" fill="#b7b9d9" stroke="#b7b9d9" stroke-width="1.51"/><path d="M-36,79L-57,192L91,108Z" fill="#d2e1ee" stroke="#d2e1ee" stroke-width="1.51"/><path d="M-4,1019L-40,1132L91,1137Z" fill="#b78bbd" stroke="#b78bbd" stroke-width="1.51"/><path d="M-21,812L-4,1019L99,876Z" fill="#b89ccb" stroke="#b89ccb" stroke-width="1.51"/><path d="M-142,690L18,737L38,514Z" fill="#bab7d9" stroke="#bab7d9" stroke-width="1.51"/><path d="M-57,192L-161,341L-57,412Z" fill="#c7d9ea" stroke="#c7d9ea" stroke-width="1.51"/><path d="M-204,-164L10,-78L21,-261Z" fill="#eaf2f8" stroke="#eaf2f8" stroke-width="1.51"/><path d="M-57,412L-192,530L38,514Z" fill="#bec9e1" stroke="#bec9e1" stroke-width="1.51"/><path d="M-192,530L-142,690L38,514Z" fill="#bcc0dd" stroke="#bcc0dd" stroke-width="1.51"/><path d="M-173,280L-161,341L-57,192Z" fill="#ccdcec" stroke="#ccdcec" stroke-width="1.51"/><path d="M-154,800L-189,1016L-21,812Z" fill="#bda2ce" stroke="#bda2ce" stroke-width="1.51"/><path d="M-21,812L-189,1016L-4,1019Z" fill="#bb9aca" stroke="#bb9aca" stroke-width="1.51"/><path d="M-214,-55L-36,79L10,-78Z" fill="#e1ecf4" stroke="#e1ecf4" stroke-width="1.51"/><path d="M-142,690L-21,812L18,737Z" fill="#bbadd4" stroke="#bbadd4" stroke-width="1.51"/><path d="M-204,-164L-214,-55L10,-78Z" fill="#e9f2f7" stroke="#e9f2f7" stroke-width="1.51"/><path d="M-142,690L-154,800L-21,812Z" fill="#bdacd4" stroke="#bdacd4" stroke-width="1.51"/><path d="M-189,1016L-40,1132L-4,1019Z" fill="#bb91c1" stroke="#bb91c1" stroke-width="1.51"/><path d="M-157,1168L-55,1271L-40,1132Z" fill="#b587b4" stroke="#b587b4" stroke-width="1.51"/><path d="M-214,-55L-210,75L-36,79Z" fill="#dfeaf3" stroke="#dfeaf3" stroke-width="1.51"/><path d="M-189,1016L-157,1168L-40,1132Z" fill="#bc8ebe" stroke="#bc8ebe" stroke-width="1.51"/><path d="M-210,75L-57,192L-36,79Z" fill="#d7e4f0" stroke="#d7e4f0" stroke-width="1.51"/><path d="M-161,341L-192,530L-57,412Z" fill="#c3d0e5" stroke="#c3d0e5" stroke-width="1.51"/><path d="M-157,1168L-215,1245L-55,1271Z" fill="#b285b1" stroke="#b285b1" stroke-width="1.51"/><path d="M-210,75L-173,280L-57,192Z" fill="#d3e2ee" stroke="#d3e2ee" stroke-width="1.51"/><path d="M-192,530L-154,800L-142,690Z" fill="#bfb7d9" stroke="#bfb7d9" stroke-width="1.51"/><path d="M-189,1016L-215,1245L-157,1168Z" fill="#be8cbb" stroke="#be8cbb" stroke-width="1.51"/><path d="M-192,530L-189,1016L-154,800Z" fill="#c0add4" stroke="#c0add4" stroke-width="1.51"/><path d="M-173,280L-192,530L-161,341Z" fill="#c6d5e8" stroke="#c6d5e8" stroke-width="1.51"/><path d="M-210,75L-192,530L-173,280Z" fill="#ccdcec" stroke="#ccdcec" stroke-width="1.51"/><path d="M-192,530L-215,1245L-189,1016Z" fill="#c09fcd" stroke="#c09fcd" stroke-width="1.51"/><path d="M-210,75L-215,1245L-192,530Z" fill="#c0bedd" stroke="#c0bedd" stroke-width="1.51"/><path d="M-214,-55L-215,1245L-210,75Z" fill="#c6d3e6" stroke="#c6d3e6" stroke-width="1.51"/></svg>