<svg xmlns="http://www.w3.org/2000/svg" width="1920" height="1080"><path d="M-82,-217L75,-210L205,-213Z" fill="#a35109" stroke="#a35109" stroke-width="1.51"/><path d="M-82,-217L205,-213L581,-221Z" fill="#b25f0e" stroke="#b25f0e" stroke-width="1.51"/><path d="M978,-199L1147,-185L1254,-189Z" fill="#c19179" stroke="#c19179" stroke-width="1.51"/><path d="M1374,1263L980,1303L1514,1273Z" fill="#80679c" stroke="#80679c" stroke-width="1.51"/><path d="M1254,-189L1478,-180L1740,-186Z" fill="#a6716a" stroke="#a6716a" stroke-width="1.51"/><path d="M1514,1273L980,1303L1775,1302Z" fill="#745993" stroke="#745993" stroke-width="1.51"/><path d="M1254,-189L1740,-186L2015,-204Z" fill="#935c5e" stroke="#935c5e" stroke-width="1.51"/><path d="M978,-199L1254,-189L2015,-204Z" fill="#ab786e" stroke="#ab786e" stroke-width="1.51"/><path d="M581,-221L978,-199L2015,-204Z" fill="#ba8b77" stroke="#ba8b77" stroke-width="1.51"/><path d="M1740,-186L1896,-165L2015,-204Z" fill="#813a50" stroke="#813a50" stroke-width="1.51"/><path d="M1889,1274L1775,1302L2057,1267Z" fill="#461a72" stroke="#461a72" stroke-width="1.51"/><path d="M2064,752L2012,776L2109,897Z" fill="#7d629d" stroke="#7d629d" stroke-width="1.51"/><path d="M2015,1033L2097,1036L2109,897Z" fill="#614488" stroke="#614488" stroke-width="1.51"/><path d="M2007,896L2015,1033L2109,897Z" fill="#6b4f91" stroke="#6b4f91" stroke-width="1.51"/><path d="M2087,669L2064,752L2109,897Z" fill="#7f659c" stroke="#7f659c" stroke-width="1.51"/><path d="M1975,257L1997,439L2129,272Z" fill="#a26e83" stroke="#a26e83" stroke-width="1.51"/><path d="M2099,166L2002,218L2129,272Z" fill="#9e5e65" stroke="#9e5e65" stroke-width="1.51"/><path d="M2058,-101L1994,-67L2130,90Z" fill="#883944" stroke="#883944" stroke-width="1.51"/><path d="M1994,-67L1938,37L2130,90Z" fill="#92424c" stroke="#92424c" stroke-width="1.51"/><path d="M2074,-151L2058,-101L2130,90Z" fill="#813340" stroke="#813340" stroke-width="1.51"/><path d="M2099,166L2129,272L2130,90Z" fill="#975357" stroke="#975357" stroke-width="1.51"/><path d="M2006,561L2095,578L2134,447Z" fill="#987ca7" stroke="#987ca7" stroke-width="1.51"/><path d="M1997,439L2006,561L2134,447Z" fill="#9d7ca3" stroke="#9d7ca3" stroke-width="1.51"/><path d="M2087,669L2109,897L2134,447Z" fill="#8970a0" stroke="#8970a0" stroke-width="1.51"/><path d="M2095,578L2087,669L2134,447Z" fill="#9379a4" stroke="#9379a4" stroke-width="1.51"/><path d="M2129,272L1997,439L2134,447Z" fill="#9c728b" stroke="#9c728b" stroke-width="1.51"/><path d="M2130,90L2129,272L2134,447Z" fill="#996069" stroke="#996069" stroke-width="1.51"/><path d="M2097,1036L2017,1171L2139,1128Z" fill="#4e2779" stroke="#4e2779" stroke-width="1.51"/><path d="M2017,1171L2057,1267L2139,1128Z" fill="#44186f" stroke="#44186f" stroke-width="1.51"/><path d="M2109,897L2097,1036L2139,1128Z" fill="#593b7f" stroke="#593b7f" stroke-width="1.51"/><path d="M2134,447L2109,897L2139,1128Z" fill="#755a92" stroke="#755a92" stroke-width="1.51"/><path d="M2012,776L2007,896L2109,897Z" fill="#795d9b" stroke="#795d9b" stroke-width="1.51"/><path d="M2015,1033L2017,1171L2097,1036Z" fill="#573381" stroke="#573381" stroke-width="1.51"/><path d="M1938,37L2099,166L2130,90Z" fill="#984b50" stroke="#984b50" stroke-width="1.51"/><path d="M2002,218L1975,257L2129,272Z" fill="#a36571" stroke="#a36571" stroke-width="1.51"/><path d="M2008,670L2087,669L2095,578Z" fill="#9076a7" stroke="#9076a7" stroke-width="1.51"/><path d="M1938,37L2002,218L2099,166Z" fill="#9f565e" stroke="#9f565e" stroke-width="1.51"/><path d="M2008,670L2064,752L2087,669Z" fill="#8b73a6" stroke="#8b73a6" stroke-width="1.51"/><path d="M2006,561L2008,670L2095,578Z" fill="#967cad" stroke="#967cad" stroke-width="1.51"/><path d="M2017,1171L1992,1217L2057,1267Z" fill="#44186f" stroke="#44186f" stroke-width="1.51"/><path d="M2015,-204L2058,-101L2074,-151Z" fill="#762d40" stroke="#762d40" stroke-width="1.51"/><path d="M1992,1217L1889,1274L2057,1267Z" fill="#44176e" stroke="#44176e" stroke-width="1.51"/><path d="M2015,-204L1994,-67L2058,-101Z" fill="#7d3144" stroke="#7d3144" stroke-width="1.51"/><path d="M2008,670L2012,776L2064,752Z" fill="#8970a7" stroke="#8970a7" stroke-width="1.51"/><path d="M1975,257L1839,262L1997,439Z" fill="#ac768f" stroke="#ac768f" stroke-width="1.51"/><path d="M1839,262L1835,455L1997,439Z" fill="#af85a4" stroke="#af85a4" stroke-width="1.51"/><path d="M1938,37L1834,202L2002,218Z" fill="#aa5f6b" stroke="#aa5f6b" stroke-width="1.51"/><path d="M1997,439L1862,555L2006,561Z" fill="#a587b6" stroke="#a587b6" stroke-width="1.51"/><path d="M1862,555L1865,665L2006,561Z" fill="#a288be" stroke="#a288be" stroke-width="1.51"/><path d="M1864,761L1825,881L2007,896Z" fill="#876daf" stroke="#876daf" stroke-width="1.51"/><path d="M2006,561L1865,665L2008,670Z" fill="#9a80b6" stroke="#9a80b6" stroke-width="1.51"/><path d="M1865,665L1864,761L2008,670Z" fill="#987fba" stroke="#987fba" stroke-width="1.51"/><path d="M2008,670L1864,761L2012,776Z" fill="#8f75b0" stroke="#8f75b0" stroke-width="1.51"/><path d="M1864,761L2007,896L2012,776Z" fill="#866aab" stroke="#866aab" stroke-width="1.51"/><path d="M1896,-165L1994,-67L2015,-204Z" fill="#7f334a" stroke="#7f334a" stroke-width="1.51"/><path d="M1856,1026L1845,1104L2015,1033Z" fill="#664596" stroke="#664596" stroke-width="1.51"/><path d="M2007,896L1856,1026L2015,1033Z" fill="#6b4e98" stroke="#6b4e98" stroke-width="1.51"/><path d="M2015,1033L1845,1104L2017,1171Z" fill="#5a348a" stroke="#5a348a" stroke-width="1.51"/><path d="M1845,1104L1992,1217L2017,1171Z" fill="#512584" stroke="#512584" stroke-width="1.51"/><path d="M1825,881L1856,1026L2007,896Z" fill="#7a5ea5" stroke="#7a5ea5" stroke-width="1.51"/><path d="M1835,455L1862,555L1997,439Z" fill="#ab8bb6" stroke="#ab8bb6" stroke-width="1.51"/><path d="M1834,202L1975,257L2002,218Z" fill="#ad6a78" stroke="#ad6a78" stroke-width="1.51"/><path d="M1898,23L1938,37L1994,-67Z" fill="#974654" stroke="#974654" stroke-width="1.51"/><path d="M1845,1104L1889,1274L1992,1217Z" fill="#502582" stroke="#502582" stroke-width="1.51"/><path d="M1819,-94L1898,23L1994,-67Z" fill="#954555" stroke="#954555" stroke-width="1.51"/><path d="M1896,-165L1819,-94L1994,-67Z" fill="#8c3e52" stroke="#8c3e52" stroke-width="1.51"/><path d="M1898,23L1834,202L1938,37Z" fill="#a85961" stroke="#a85961" stroke-width="1.51"/><path d="M1834,202L1839,262L1975,257Z" fill="#b37481" stroke="#b37481" stroke-width="1.51"/><path d="M1478,-180L1620,-157L1740,-186Z" fill="#9c6462" stroke="#9c6462" stroke-width="1.51"/><path d="M1845,1104L1770,1158L1889,1274Z" fill="#5b338b" stroke="#5b338b" stroke-width="1.51"/><path d="M1780,145L1834,202L1898,23Z" fill="#b0686b" stroke="#b0686b" stroke-width="1.51"/><path d="M1720,395L1835,455L1839,262Z" fill="#b793a6" stroke="#b793a6" stroke-width="1.51"/><path d="M1825,881L1760,985L1856,1026Z" fill="#7c65a7" stroke="#7c65a7" stroke-width="1.51"/><path d="M1770,1158L1775,1302L1889,1274Z" fill="#552f80" stroke="#552f80" stroke-width="1.51"/><path d="M1819,-94L1734,-29L1898,23Z" fill="#9f555b" stroke="#9f555b" stroke-width="1.51"/><path d="M1734,-29L1762,99L1898,23Z" fill="#aa6161" stroke="#aa6161" stroke-width="1.51"/><path d="M1762,99L1780,145L1898,23Z" fill="#af6666" stroke="#af6666" stroke-width="1.51"/><path d="M1740,-186L1819,-94L1896,-165Z" fill="#8d4856" stroke="#8d4856" stroke-width="1.51"/><path d="M529,1254L306,1291L980,1303Z" fill="#9c6776" stroke="#9c6776" stroke-width="1.51"/><path d="M1716,280L1720,395L1839,262Z" fill="#bd929b" stroke="#bd929b" stroke-width="1.51"/><path d="M1835,455L1708,524L1862,555Z" fill="#b29dc3" stroke="#b29dc3" stroke-width="1.51"/><path d="M1708,524L1696,691L1862,555Z" fill="#b0a2ca" stroke="#b0a2ca" stroke-width="1.51"/><path d="M1735,795L1825,881L1864,761Z" fill="#9380b8" stroke="#9380b8" stroke-width="1.51"/><path d="M1696,691L1735,795L1864,761Z" fill="#9e90c0" stroke="#9e90c0" stroke-width="1.51"/><path d="M1696,691L1864,761L1865,665Z" fill="#a08fc1" stroke="#a08fc1" stroke-width="1.51"/><path d="M1862,555L1696,691L1865,665Z" fill="#a795c4" stroke="#a795c4" stroke-width="1.51"/><path d="M1760,985L1845,1104L1856,1026Z" fill="#70569e" stroke="#70569e" stroke-width="1.51"/><path d="M1760,985L1770,1158L1845,1104Z" fill="#6d4f9b" stroke="#6d4f9b" stroke-width="1.51"/><path d="M1834,202L1716,280L1839,262Z" fill="#ba8389" stroke="#ba8389" stroke-width="1.51"/><path d="M1706,886L1760,985L1825,881Z" fill="#8876b0" stroke="#8876b0" stroke-width="1.51"/><path d="M1780,145L1716,280L1834,202Z" fill="#bb8181" stroke="#bb8181" stroke-width="1.51"/><path d="M1720,395L1708,524L1835,455Z" fill="#b8a1bc" stroke="#b8a1bc" stroke-width="1.51"/><path d="M1735,795L1706,886L1825,881Z" fill="#9282b9" stroke="#9282b9" stroke-width="1.51"/><path d="M1740,-186L1734,-29L1819,-94Z" fill="#99555b" stroke="#99555b" stroke-width="1.51"/><path d="M1634,617L1696,691L1708,524Z" fill="#b4adcf" stroke="#b4adcf" stroke-width="1.51"/><path d="M1661,-73L1734,-29L1740,-186Z" fill="#a05f5e" stroke="#a05f5e" stroke-width="1.51"/><path d="M1760,985L1623,1106L1770,1158Z" fill="#735ba1" stroke="#735ba1" stroke-width="1.51"/><path d="M1770,1158L1576,1222L1775,1302Z" fill="#60428b" stroke="#60428b" stroke-width="1.51"/><path d="M1576,1222L1514,1273L1775,1302Z" fill="#64478a" stroke="#64478a" stroke-width="1.51"/><path d="M1762,99L1647,201L1780,145Z" fill="#bc7e77" stroke="#bc7e77" stroke-width="1.51"/><path d="M1647,201L1716,280L1780,145Z" fill="#c18b85" stroke="#c18b85" stroke-width="1.51"/><path d="M1611,991L1623,1106L1760,985Z" fill="#7f70ab" stroke="#7f70ab" stroke-width="1.51"/><path d="M1706,886L1662,919L1760,985Z" fill="#8a7cb3" stroke="#8a7cb3" stroke-width="1.51"/><path d="M1734,-29L1583,65L1762,99Z" fill="#b67468" stroke="#b67468" stroke-width="1.51"/><path d="M1623,1106L1576,1222L1770,1158Z" fill="#6e519c" stroke="#6e519c" stroke-width="1.51"/><path d="M1583,65L1647,201L1762,99Z" fill="#c08476" stroke="#c08476" stroke-width="1.51"/><path d="M1662,919L1611,991L1760,985Z" fill="#877bb1" stroke="#877bb1" stroke-width="1.51"/><path d="M1650,386L1634,528L1708,524Z" fill="#bfb1c7" stroke="#bfb1c7" stroke-width="1.51"/><path d="M1647,201L1662,278L1716,280Z" fill="#c59892" stroke="#c59892" stroke-width="1.51"/><path d="M1662,278L1650,386L1716,280Z" fill="#c49fa1" stroke="#c49fa1" stroke-width="1.51"/><path d="M1716,280L1650,386L1720,395Z" fill="#c1a1aa" stroke="#c1a1aa" stroke-width="1.51"/><path d="M1650,386L1708,524L1720,395Z" fill="#bea9bb" stroke="#bea9bb" stroke-width="1.51"/><path d="M1661,-73L1583,65L1734,-29Z" fill="#b17166" stroke="#b17166" stroke-width="1.51"/><path d="M1605,792L1706,886L1735,795Z" fill="#9c92c1" stroke="#9c92c1" stroke-width="1.51"/><path d="M1696,691L1605,792L1735,795Z" fill="#a49cc6" stroke="#a49cc6" stroke-width="1.51"/><path d="M1620,-157L1661,-73L1740,-186Z" fill="#9c605f" stroke="#9c605f" stroke-width="1.51"/><path d="M1254,-189L1337,-168L1478,-180Z" fill="#b37f71" stroke="#b37f71" stroke-width="1.51"/><path d="M1634,528L1634,617L1708,524Z" fill="#bcb4d2" stroke="#bcb4d2" stroke-width="1.51"/><path d="M1230,1239L980,1303L1374,1263Z" fill="#8a71a3" stroke="#8a71a3" stroke-width="1.51"/><path d="M1605,792L1662,919L1706,886Z" fill="#998fbf" stroke="#998fbf" stroke-width="1.51"/><path d="M1634,617L1605,792L1696,691Z" fill="#afa9cd" stroke="#afa9cd" stroke-width="1.51"/><path d="M676,1248L529,1254L980,1303Z" fill="#9d738d" stroke="#9d738d" stroke-width="1.51"/><path d="M1515,698L1524,745L1605,792Z" fill="#b3aed2" stroke="#b3aed2" stroke-width="1.51"/><path d="M1500,395L1503,515L1634,528Z" fill="#ccbfd0" stroke="#ccbfd0" stroke-width="1.51"/><path d="M1515,698L1605,792L1634,617Z" fill="#b5b0d2" stroke="#b5b0d2" stroke-width="1.51"/><path d="M1500,395L1634,528L1650,386Z" fill="#c8b6c3" stroke="#c8b6c3" stroke-width="1.51"/><path d="M1539,61L1583,65L1661,-73Z" fill="#bc7d6d" stroke="#bc7d6d" stroke-width="1.51"/><path d="M1455,-61L1539,61L1661,-73Z" fill="#bb7c6d" stroke="#bb7c6d" stroke-width="1.51"/><path d="M1489,885L1611,991L1662,919Z" fill="#968bbd" stroke="#968bbd" stroke-width="1.51"/><path d="M1605,792L1489,885L1662,919Z" fill="#a197c5" stroke="#a197c5" stroke-width="1.51"/><path d="M1489,344L1650,386L1662,278Z" fill="#cbabad" stroke="#cbabad" stroke-width="1.51"/><path d="M1647,201L1489,344L1662,278Z" fill="#cda39d" stroke="#cda39d" stroke-width="1.51"/><path d="M1620,-157L1455,-61L1661,-73Z" fill="#ad7067" stroke="#ad7067" stroke-width="1.51"/><path d="M1417,223L1489,344L1647,201Z" fill="#d5ab9e" stroke="#d5ab9e" stroke-width="1.51"/><path d="M1466,136L1417,223L1647,201Z" fill="#d4a18e" stroke="#d4a18e" stroke-width="1.51"/><path d="M1583,65L1466,136L1647,201Z" fill="#cb917f" stroke="#cb917f" stroke-width="1.51"/><path d="M1489,344L1500,395L1650,386Z" fill="#cfb7ba" stroke="#cfb7ba" stroke-width="1.51"/><path d="M1539,61L1466,136L1583,65Z" fill="#cb8e78" stroke="#cb8e78" stroke-width="1.51"/><path d="M1478,-180L1455,-61L1620,-157Z" fill="#ad736a" stroke="#ad736a" stroke-width="1.51"/><path d="M1481,1158L1576,1222L1623,1106Z" fill="#785ca3" stroke="#785ca3" stroke-width="1.51"/><path d="M1611,991L1482,1053L1623,1106Z" fill="#8675af" stroke="#8675af" stroke-width="1.51"/><path d="M1634,528L1503,515L1634,617Z" fill="#c3bcd8" stroke="#c3bcd8" stroke-width="1.51"/><path d="M1503,515L1515,698L1634,617Z" fill="#c2bdd9" stroke="#c2bdd9" stroke-width="1.51"/><path d="M1482,1053L1481,1158L1623,1106Z" fill="#836cac" stroke="#836cac" stroke-width="1.51"/><path d="M1101,1251L980,1303L1230,1239Z" fill="#8f76a6" stroke="#8f76a6" stroke-width="1.51"/><path d="M1489,885L1482,1053L1611,991Z" fill="#958abc" stroke="#958abc" stroke-width="1.51"/><path d="M1524,745L1489,885L1605,792Z" fill="#ada5cd" stroke="#ada5cd" stroke-width="1.51"/><path d="M581,-221L866,-184L978,-199Z" fill="#c89269" stroke="#c89269" stroke-width="1.51"/><path d="M1481,1158L1514,1273L1576,1222Z" fill="#74589b" stroke="#74589b" stroke-width="1.51"/><path d="M1503,515L1386,636L1515,698Z" fill="#cac6e0" stroke="#cac6e0" stroke-width="1.51"/><path d="M1410,779L1489,885L1524,745Z" fill="#b4aed3" stroke="#b4aed3" stroke-width="1.51"/><path d="M1414,19L1466,136L1539,61Z" fill="#d09279" stroke="#d09279" stroke-width="1.51"/><path d="M1455,-61L1414,19L1539,61Z" fill="#c88a74" stroke="#c88a74" stroke-width="1.51"/><path d="M1418,-95L1455,-61L1478,-180Z" fill="#b87d6f" stroke="#b87d6f" stroke-width="1.51"/><path d="M1382,886L1344,1015L1482,1053Z" fill="#9f96c4" stroke="#9f96c4" stroke-width="1.51"/><path d="M1382,886L1482,1053L1489,885Z" fill="#a299c6" stroke="#a299c6" stroke-width="1.51"/><path d="M1500,395L1389,442L1503,515Z" fill="#d5c7d0" stroke="#d5c7d0" stroke-width="1.51"/><path d="M1481,1158L1374,1263L1514,1273Z" fill="#7a5e9d" stroke="#7a5e9d" stroke-width="1.51"/><path d="M1515,698L1410,779L1524,745Z" fill="#bbb6d7" stroke="#bbb6d7" stroke-width="1.51"/><path d="M1386,636L1410,779L1515,698Z" fill="#c4c1de" stroke="#c4c1de" stroke-width="1.51"/><path d="M1350,515L1386,636L1503,515Z" fill="#d5d1e6" stroke="#d5d1e6" stroke-width="1.51"/><path d="M1410,779L1382,886L1489,885Z" fill="#b3acd2" stroke="#b3acd2" stroke-width="1.51"/><path d="M1417,223L1371,261L1489,344Z" fill="#deb9a9" stroke="#deb9a9" stroke-width="1.51"/><path d="M1389,442L1350,515L1503,515Z" fill="#d8d0dc" stroke="#d8d0dc" stroke-width="1.51"/><path d="M1340,1122L1481,1158L1482,1053Z" fill="#8c76b3" stroke="#8c76b3" stroke-width="1.51"/><path d="M1489,344L1389,442L1500,395Z" fill="#d8c3c5" stroke="#d8c3c5" stroke-width="1.51"/><path d="M1371,261L1389,442L1489,344Z" fill="#ddc3bc" stroke="#ddc3bc" stroke-width="1.51"/><path d="M1340,1122L1374,1263L1481,1158Z" fill="#866aab" stroke="#866aab" stroke-width="1.51"/><path d="M1344,1015L1340,1122L1482,1053Z" fill="#9685bb" stroke="#9685bb" stroke-width="1.51"/><path d="M1337,-168L1418,-95L1478,-180Z" fill="#b57d70" stroke="#b57d70" stroke-width="1.51"/><path d="M1371,261L1298,377L1389,442Z" fill="#e2cbc3" stroke="#e2cbc3" stroke-width="1.51"/><path d="M1222,162L1417,223L1466,136Z" fill="#e0af94" stroke="#e0af94" stroke-width="1.51"/><path d="M1414,19L1222,162L1466,136Z" fill="#dca385" stroke="#dca385" stroke-width="1.51"/><path d="M1292,342L1298,377L1371,261Z" fill="#e5c9bc" stroke="#e5c9bc" stroke-width="1.51"/><path d="M1418,-95L1414,19L1455,-61Z" fill="#c48774" stroke="#c48774" stroke-width="1.51"/><path d="M1299,980L1344,1015L1382,886Z" fill="#a8a1ca" stroke="#a8a1ca" stroke-width="1.51"/><path d="M1386,636L1258,809L1410,779Z" fill="#c6c4df" stroke="#c6c4df" stroke-width="1.51"/><path d="M1258,809L1382,886L1410,779Z" fill="#bcb7d8" stroke="#bcb7d8" stroke-width="1.51"/><path d="M1216,53L1222,162L1414,19Z" fill="#e1a683" stroke="#e1a683" stroke-width="1.51"/><path d="M1222,162L1371,261L1417,223Z" fill="#e5b99e" stroke="#e5b99e" stroke-width="1.51"/><path d="M1290,-67L1414,19L1418,-95Z" fill="#c88c76" stroke="#c88c76" stroke-width="1.51"/><path d="M1337,-168L1290,-67L1418,-95Z" fill="#c08774" stroke="#c08774" stroke-width="1.51"/><path d="M1290,-67L1216,53L1414,19Z" fill="#d5997c" stroke="#d5997c" stroke-width="1.51"/><path d="M1216,638L1258,809L1386,636Z" fill="#d1d1e6" stroke="#d1d1e6" stroke-width="1.51"/><path d="M1340,1122L1230,1239L1374,1263Z" fill="#886eaa" stroke="#886eaa" stroke-width="1.51"/><path d="M1289,893L1299,980L1382,886Z" fill="#b0aacf" stroke="#b0aacf" stroke-width="1.51"/><path d="M1258,809L1289,893L1382,886Z" fill="#bbb5d7" stroke="#bbb5d7" stroke-width="1.51"/><path d="M1350,515L1259,524L1386,636Z" fill="#dbdaea" stroke="#dbdaea" stroke-width="1.51"/><path d="M1259,524L1216,638L1386,636Z" fill="#dadaea" stroke="#dadaea" stroke-width="1.51"/><path d="M1298,377L1350,515L1389,442Z" fill="#dfd3d6" stroke="#dfd3d6" stroke-width="1.51"/><path d="M1298,377L1259,524L1350,515Z" fill="#e2d9de" stroke="#e2d9de" stroke-width="1.51"/><path d="M1222,162L1292,342L1371,261Z" fill="#e9c3aa" stroke="#e9c3aa" stroke-width="1.51"/><path d="M1222,162L1176,199L1292,342Z" fill="#eec7a8" stroke="#eec7a8" stroke-width="1.51"/><path d="M1255,1105L1230,1239L1340,1122Z" fill="#937ab6" stroke="#937ab6" stroke-width="1.51"/><path d="M1255,1105L1340,1122L1344,1015Z" fill="#9a88bd" stroke="#9a88bd" stroke-width="1.51"/><path d="M1299,980L1255,1105L1344,1015Z" fill="#a095c3" stroke="#a095c3" stroke-width="1.51"/><path d="M1254,-189L1290,-67L1337,-168Z" fill="#bf8975" stroke="#bf8975" stroke-width="1.51"/><path d="M1216,638L1168,763L1258,809Z" fill="#d2d2e7" stroke="#d2d2e7" stroke-width="1.51"/><path d="M1254,-189L1163,-41L1290,-67Z" fill="#cb9379" stroke="#cb9379" stroke-width="1.51"/><path d="M1163,-41L1216,53L1290,-67Z" fill="#d89f7f" stroke="#d89f7f" stroke-width="1.51"/><path d="M1176,199L1152,305L1292,342Z" fill="#efcfb5" stroke="#efcfb5" stroke-width="1.51"/><path d="M1110,399L1259,524L1298,377Z" fill="#e9deda" stroke="#e9deda" stroke-width="1.51"/><path d="M1124,986L1255,1105L1299,980Z" fill="#a89fc8" stroke="#a89fc8" stroke-width="1.51"/><path d="M1289,893L1137,905L1299,980Z" fill="#b5b0d3" stroke="#b5b0d3" stroke-width="1.51"/><path d="M1137,905L1124,986L1299,980Z" fill="#b5b0d2" stroke="#b5b0d2" stroke-width="1.51"/><path d="M1292,342L1152,305L1298,377Z" fill="#ead3c3" stroke="#ead3c3" stroke-width="1.51"/><path d="M1152,305L1110,399L1298,377Z" fill="#efdbcb" stroke="#efdbcb" stroke-width="1.51"/><path d="M1147,-185L1163,-41L1254,-189Z" fill="#c8937a" stroke="#c8937a" stroke-width="1.51"/><path d="M1258,809L1137,905L1289,893Z" fill="#c0bcdb" stroke="#c0bcdb" stroke-width="1.51"/><path d="M1104,1097L1230,1239L1255,1105Z" fill="#9a82bb" stroke="#9a82bb" stroke-width="1.51"/><path d="M1124,986L1104,1097L1255,1105Z" fill="#a89ac6" stroke="#a89ac6" stroke-width="1.51"/><path d="M1168,763L1137,905L1258,809Z" fill="#c9c7e1" stroke="#c9c7e1" stroke-width="1.51"/><path d="M1106,530L1216,638L1259,524Z" fill="#e5e6f0" stroke="#e5e6f0" stroke-width="1.51"/><path d="M1110,399L1106,530L1259,524Z" fill="#ece7e7" stroke="#ece7e7" stroke-width="1.51"/><path d="M1104,1097L1101,1251L1230,1239Z" fill="#977db4" stroke="#977db4" stroke-width="1.51"/><path d="M1098,699L1168,763L1216,638Z" fill="#dadcec" stroke="#dadcec" stroke-width="1.51"/><path d="M1216,53L1124,78L1222,162Z" fill="#eab38b" stroke="#eab38b" stroke-width="1.51"/><path d="M1163,-41L1124,78L1216,53Z" fill="#e3aa83" stroke="#e3aa83" stroke-width="1.51"/><path d="M1124,78L1176,199L1222,162Z" fill="#edbc96" stroke="#edbc96" stroke-width="1.51"/><path d="M1106,530L1098,699L1216,638Z" fill="#e3e4f0" stroke="#e3e4f0" stroke-width="1.51"/><path d="M205,-213L459,-199L581,-221Z" fill="#be732c" stroke="#be732c" stroke-width="1.51"/><path d="M1032,655L1098,699L1106,530Z" fill="#e7e8f1" stroke="#e7e8f1" stroke-width="1.51"/><path d="M1037,81L1002,209L1124,78Z" fill="#f3bf93" stroke="#f3bf93" stroke-width="1.51"/><path d="M1147,-185L1004,-50L1163,-41Z" fill="#d59c7d" stroke="#d59c7d" stroke-width="1.51"/><path d="M1060,869L1137,905L1168,763Z" fill="#cbc8e1" stroke="#cbc8e1" stroke-width="1.51"/><path d="M1124,78L1002,209L1176,199Z" fill="#f3c39b" stroke="#f3c39b" stroke-width="1.51"/><path d="M1002,209L1052,263L1176,199Z" fill="#f8cfa9" stroke="#f8cfa9" stroke-width="1.51"/><path d="M1052,263L1152,305L1176,199Z" fill="#f5d1b1" stroke="#f5d1b1" stroke-width="1.51"/><path d="M1004,-50L1124,78L1163,-41Z" fill="#e2a882" stroke="#e2a882" stroke-width="1.51"/><path d="M1098,699L1060,869L1168,763Z" fill="#d4d3e7" stroke="#d4d3e7" stroke-width="1.51"/><path d="M791,1240L676,1248L980,1303Z" fill="#9c7798" stroke="#9c7798" stroke-width="1.51"/><path d="M992,806L1060,869L1098,699Z" fill="#d6d4e8" stroke="#d6d4e8" stroke-width="1.51"/><path d="M1004,-50L1037,81L1124,78Z" fill="#ebb186" stroke="#ebb186" stroke-width="1.51"/><path d="M1040,1062L1104,1097L1124,986Z" fill="#ada1ca" stroke="#ada1ca" stroke-width="1.51"/><path d="M978,-199L1004,-50L1147,-185Z" fill="#ce9a7c" stroke="#ce9a7c" stroke-width="1.51"/><path d="M1052,263L1110,399L1152,305Z" fill="#f4dac3" stroke="#f4dac3" stroke-width="1.51"/><path d="M990,1101L1101,1251L1104,1097Z" fill="#a289be" stroke="#a289be" stroke-width="1.51"/><path d="M1052,263L1002,388L1110,399Z" fill="#f7e1cb" stroke="#f7e1cb" stroke-width="1.51"/><path d="M1008,508L1106,530L1110,399Z" fill="#f2ebe7" stroke="#f2ebe7" stroke-width="1.51"/><path d="M1060,869L1124,986L1137,905Z" fill="#c0bbd8" stroke="#c0bbd8" stroke-width="1.51"/><path d="M1002,388L1008,508L1110,399Z" fill="#f6eade" stroke="#f6eade" stroke-width="1.51"/><path d="M1060,869L1040,1062L1124,986Z" fill="#b9b3d3" stroke="#b9b3d3" stroke-width="1.51"/><path d="M905,938L1040,1062L1060,869Z" fill="#c1bad6" stroke="#c1bad6" stroke-width="1.51"/><path d="M990,1101L980,1303L1101,1251Z" fill="#9b80b2" stroke="#9b80b2" stroke-width="1.51"/><path d="M1008,508L1032,655L1106,530Z" fill="#efeff4" stroke="#efeff4" stroke-width="1.51"/><path d="M1032,655L992,806L1098,699Z" fill="#dfe0ed" stroke="#dfe0ed" stroke-width="1.51"/><path d="M1040,1062L990,1101L1104,1097Z" fill="#ac9ac6" stroke="#ac9ac6" stroke-width="1.51"/><path d="M908,1247L980,1303L990,1101Z" fill="#9f84b4" stroke="#9f84b4" stroke-width="1.51"/><path d="M29,1260L-98,1245L148,1286Z" fill="#813340" stroke="#813340" stroke-width="1.51"/><path d="M902,1136L908,1247L990,1101Z" fill="#a88abd" stroke="#a88abd" stroke-width="1.51"/><path d="M1008,508L907,544L1032,655Z" fill="#f3f3f6" stroke="#f3f3f6" stroke-width="1.51"/><path d="M1004,-50L944,71L1037,81Z" fill="#eeb487" stroke="#eeb487" stroke-width="1.51"/><path d="M933,318L1002,388L1052,263Z" fill="#fbe1c5" stroke="#fbe1c5" stroke-width="1.51"/><path d="M992,806L905,938L1060,869Z" fill="#d0cbe1" stroke="#d0cbe1" stroke-width="1.51"/><path d="M908,643L992,806L1032,655Z" fill="#e6e6f0" stroke="#e6e6f0" stroke-width="1.51"/><path d="M907,544L908,643L1032,655Z" fill="#f0eff3" stroke="#f0eff3" stroke-width="1.51"/><path d="M944,71L1002,209L1037,81Z" fill="#f7c294" stroke="#f7c294" stroke-width="1.51"/><path d="M875,980L990,1101L1040,1062Z" fill="#b6a8cd" stroke="#b6a8cd" stroke-width="1.51"/><path d="M905,938L875,980L1040,1062Z" fill="#beb5d1" stroke="#beb5d1" stroke-width="1.51"/><path d="M1002,209L933,318L1052,263Z" fill="#fcdab5" stroke="#fcdab5" stroke-width="1.51"/><path d="M908,643L856,738L992,806Z" fill="#e5e1e9" stroke="#e5e1e9" stroke-width="1.51"/><path d="M581,-221L749,-161L866,-184Z" fill="#ca905f" stroke="#ca905f" stroke-width="1.51"/><path d="M978,-199L863,-98L1004,-50Z" fill="#d9a27e" stroke="#d9a27e" stroke-width="1.51"/><path d="M1002,388L894,399L1008,508Z" fill="#faeee0" stroke="#faeee0" stroke-width="1.51"/><path d="M908,1247L791,1240L980,1303Z" fill="#9a7ba1" stroke="#9a7ba1" stroke-width="1.51"/><path d="M944,71L862,142L1002,209Z" fill="#fac796" stroke="#fac796" stroke-width="1.51"/><path d="M863,-98L944,71L1004,-50Z" fill="#e7ad81" stroke="#e7ad81" stroke-width="1.51"/><path d="M894,399L907,544L1008,508Z" fill="#faf2e8" stroke="#faf2e8" stroke-width="1.51"/><path d="M866,-184L863,-98L978,-199Z" fill="#d09b76" stroke="#d09b76" stroke-width="1.51"/><path d="M875,980L902,1136L990,1101Z" fill="#b4a0c5" stroke="#b4a0c5" stroke-width="1.51"/><path d="M862,142L933,318L1002,209Z" fill="#ffd5a8" stroke="#ffd5a8" stroke-width="1.51"/><path d="M933,318L894,399L1002,388Z" fill="#fce8d0" stroke="#fce8d0" stroke-width="1.51"/><path d="M856,738L905,938L992,806Z" fill="#d9d2e1" stroke="#d9d2e1" stroke-width="1.51"/><path d="M862,142L820,301L933,318Z" fill="#ffd6a8" stroke="#ffd6a8" stroke-width="1.51"/><path d="M863,-98L787,-25L944,71Z" fill="#e8ab78" stroke="#e8ab78" stroke-width="1.51"/><path d="M581,-221L696,-163L749,-161Z" fill="#cb8d57" stroke="#cb8d57" stroke-width="1.51"/><path d="M856,738L802,930L905,938Z" fill="#d5c8d4" stroke="#d5c8d4" stroke-width="1.51"/><path d="M787,-25L862,142L944,71Z" fill="#f3b67d" stroke="#f3b67d" stroke-width="1.51"/><path d="M875,980L785,1114L902,1136Z" fill="#b59dbc" stroke="#b59dbc" stroke-width="1.51"/><path d="M894,399L756,525L907,544Z" fill="#fbeede" stroke="#fbeede" stroke-width="1.51"/><path d="M820,301L894,399L933,318Z" fill="#fee1c0" stroke="#fee1c0" stroke-width="1.51"/><path d="M743,791L802,930L856,738Z" fill="#dcced2" stroke="#dcced2" stroke-width="1.51"/><path d="M787,-25L741,90L862,142Z" fill="#f4b375" stroke="#f4b375" stroke-width="1.51"/><path d="M749,183L820,301L862,142Z" fill="#fecd94" stroke="#fecd94" stroke-width="1.51"/><path d="M782,1006L785,1114L875,980Z" fill="#bba6bb" stroke="#bba6bb" stroke-width="1.51"/><path d="M807,383L756,525L894,399Z" fill="#fde8ce" stroke="#fde8ce" stroke-width="1.51"/><path d="M820,301L807,383L894,399Z" fill="#fee2c0" stroke="#fee2c0" stroke-width="1.51"/><path d="M785,1114L791,1240L902,1136Z" fill="#aa85af" stroke="#aa85af" stroke-width="1.51"/><path d="M742,660L856,738L908,643Z" fill="#ece4e1" stroke="#ece4e1" stroke-width="1.51"/><path d="M907,544L756,525L908,643Z" fill="#f6efe8" stroke="#f6efe8" stroke-width="1.51"/><path d="M756,525L742,660L908,643Z" fill="#f4e9df" stroke="#f4e9df" stroke-width="1.51"/><path d="M902,1136L791,1240L908,1247Z" fill="#a381aa" stroke="#a381aa" stroke-width="1.51"/><path d="M802,930L875,980L905,938Z" fill="#c7b9cb" stroke="#c7b9cb" stroke-width="1.51"/><path d="M749,-161L863,-98L866,-184Z" fill="#d2996d" stroke="#d2996d" stroke-width="1.51"/><path d="M802,930L782,1006L875,980Z" fill="#c4b3c4" stroke="#c4b3c4" stroke-width="1.51"/><path d="M749,-161L787,-25L863,-98Z" fill="#dc9d6b" stroke="#dc9d6b" stroke-width="1.51"/><path d="M741,90L749,183L862,142Z" fill="#f9bf81" stroke="#f9bf81" stroke-width="1.51"/><path d="M742,660L743,791L856,738Z" fill="#e8dbd6" stroke="#e8dbd6" stroke-width="1.51"/><path d="M743,791L669,905L802,930Z" fill="#d6c1c4" stroke="#d6c1c4" stroke-width="1.51"/><path d="M701,416L756,525L807,383Z" fill="#fde5c6" stroke="#fde5c6" stroke-width="1.51"/><path d="M749,183L634,286L820,301Z" fill="#ffd096" stroke="#ffd096" stroke-width="1.51"/><path d="M701,416L807,383L820,301Z" fill="#fee0b9" stroke="#fee0b9" stroke-width="1.51"/><path d="M634,286L701,416L820,301Z" fill="#ffd9a8" stroke="#ffd9a8" stroke-width="1.51"/><path d="M749,-161L636,-75L787,-25Z" fill="#dc9a61" stroke="#dc9a61" stroke-width="1.51"/><path d="M695,46L741,90L787,-25Z" fill="#efac6b" stroke="#efac6b" stroke-width="1.51"/><path d="M785,1114L676,1248L791,1240Z" fill="#a77d9d" stroke="#a77d9d" stroke-width="1.51"/><path d="M696,-163L636,-75L749,-161Z" fill="#d4945b" stroke="#d4945b" stroke-width="1.51"/><path d="M669,905L782,1006L802,930Z" fill="#cab4bd" stroke="#cab4bd" stroke-width="1.51"/><path d="M617,1103L676,1248L785,1114Z" fill="#ae809e" stroke="#ae809e" stroke-width="1.51"/><path d="M782,1006L638,1007L785,1114Z" fill="#bca0b0" stroke="#bca0b0" stroke-width="1.51"/><path d="M638,1007L617,1103L785,1114Z" fill="#b993a5" stroke="#b993a5" stroke-width="1.51"/><path d="M669,905L638,1007L782,1006Z" fill="#c7acb3" stroke="#c7acb3" stroke-width="1.51"/><path d="M636,-75L695,46L787,-25Z" fill="#e6a363" stroke="#e6a363" stroke-width="1.51"/><path d="M742,660L659,673L743,791Z" fill="#ebdacf" stroke="#ebdacf" stroke-width="1.51"/><path d="M632,522L659,673L742,660Z" fill="#f5e0cc" stroke="#f5e0cc" stroke-width="1.51"/><path d="M652,783L669,905L743,791Z" fill="#dec7c1" stroke="#dec7c1" stroke-width="1.51"/><path d="M659,673L652,783L743,791Z" fill="#e7d2c6" stroke="#e7d2c6" stroke-width="1.51"/><path d="M741,90L646,191L749,183Z" fill="#fabf7b" stroke="#fabf7b" stroke-width="1.51"/><path d="M646,191L634,286L749,183Z" fill="#ffc783" stroke="#ffc783" stroke-width="1.51"/><path d="M632,522L742,660L756,525Z" fill="#f9e8d4" stroke="#f9e8d4" stroke-width="1.51"/><path d="M701,416L632,522L756,525Z" fill="#fde5c7" stroke="#fde5c7" stroke-width="1.51"/><path d="M695,46L646,191L741,90Z" fill="#f6b56e" stroke="#f6b56e" stroke-width="1.51"/><path d="M572,84L646,191L695,46Z" fill="#f5b064" stroke="#f5b064" stroke-width="1.51"/><path d="M636,-75L572,84L695,46Z" fill="#eaa258" stroke="#eaa258" stroke-width="1.51"/><path d="M634,286L500,410L701,416Z" fill="#ffd5a0" stroke="#ffd5a0" stroke-width="1.51"/><path d="M500,410L632,522L701,416Z" fill="#ffdcb0" stroke="#ffdcb0" stroke-width="1.51"/><path d="M632,522L578,531L659,673Z" fill="#fae0c4" stroke="#fae0c4" stroke-width="1.51"/><path d="M617,1103L549,1124L676,1248Z" fill="#af7991" stroke="#af7991" stroke-width="1.51"/><path d="M581,-221L636,-75L696,-163Z" fill="#cf8d52" stroke="#cf8d52" stroke-width="1.51"/><path d="M500,410L578,531L632,522Z" fill="#ffdbb1" stroke="#ffdbb1" stroke-width="1.51"/><path d="M506,314L500,410L634,286Z" fill="#ffcb8c" stroke="#ffcb8c" stroke-width="1.51"/><path d="M533,-67L572,84L636,-75Z" fill="#e4984d" stroke="#e4984d" stroke-width="1.51"/><path d="M559,756L652,783L659,673Z" fill="#eacebd" stroke="#eacebd" stroke-width="1.51"/><path d="M652,783L511,860L669,905Z" fill="#ddbdb2" stroke="#ddbdb2" stroke-width="1.51"/><path d="M549,1124L529,1254L676,1248Z" fill="#a86f82" stroke="#a86f82" stroke-width="1.51"/><path d="M578,531L517,700L659,673Z" fill="#f5d7bc" stroke="#f5d7bc" stroke-width="1.51"/><path d="M511,860L638,1007L669,905Z" fill="#d1aea9" stroke="#d1aea9" stroke-width="1.51"/><path d="M581,-221L533,-67L636,-75Z" fill="#d48c49" stroke="#d48c49" stroke-width="1.51"/><path d="M551,220L634,286L646,191Z" fill="#fec37b" stroke="#fec37b" stroke-width="1.51"/><path d="M559,756L511,860L652,783Z" fill="#e3c1b0" stroke="#e3c1b0" stroke-width="1.51"/><path d="M517,700L559,756L659,673Z" fill="#eecfb7" stroke="#eecfb7" stroke-width="1.51"/><path d="M511,860L501,1031L638,1007Z" fill="#cba29b" stroke="#cba29b" stroke-width="1.51"/><path d="M572,84L551,220L646,191Z" fill="#f9b668" stroke="#f9b668" stroke-width="1.51"/><path d="M501,1031L617,1103L638,1007Z" fill="#be9298" stroke="#be9298" stroke-width="1.51"/><path d="M501,1031L549,1124L617,1103Z" fill="#ba878f" stroke="#ba878f" stroke-width="1.51"/><path d="M551,220L506,314L634,286Z" fill="#ffc57e" stroke="#ffc57e" stroke-width="1.51"/><path d="M419,1222L306,1291L529,1254Z" fill="#9e5a61" stroke="#9e5a61" stroke-width="1.51"/><path d="M459,-199L462,-101L533,-67Z" fill="#d28438" stroke="#d28438" stroke-width="1.51"/><path d="M462,94L551,220L572,84Z" fill="#f6ab56" stroke="#f6ab56" stroke-width="1.51"/><path d="M533,-67L462,94L572,84Z" fill="#eb9b46" stroke="#eb9b46" stroke-width="1.51"/><path d="M393,641L517,700L578,531Z" fill="#f7d1ad" stroke="#f7d1ad" stroke-width="1.51"/><path d="M385,524L393,641L578,531Z" fill="#fcd2a8" stroke="#fcd2a8" stroke-width="1.51"/><path d="M459,-199L533,-67L581,-221Z" fill="#cb833e" stroke="#cb833e" stroke-width="1.51"/><path d="M500,410L385,524L578,531Z" fill="#ffd4a3" stroke="#ffd4a3" stroke-width="1.51"/><path d="M455,1123L529,1254L549,1124Z" fill="#af6e80" stroke="#af6e80" stroke-width="1.51"/><path d="M396,448L385,524L500,410Z" fill="#fdcb95" stroke="#fdcb95" stroke-width="1.51"/><path d="M386,903L501,1031L511,860Z" fill="#d0a192" stroke="#d0a192" stroke-width="1.51"/><path d="M455,1123L419,1222L529,1254Z" fill="#a96673" stroke="#a96673" stroke-width="1.51"/><path d="M501,1031L455,1123L549,1124Z" fill="#b98086" stroke="#b98086" stroke-width="1.51"/><path d="M462,94L403,140L551,220Z" fill="#f6a951" stroke="#f6a951" stroke-width="1.51"/><path d="M517,700L428,761L559,756Z" fill="#ecc4a8" stroke="#ecc4a8" stroke-width="1.51"/><path d="M428,761L511,860L559,756Z" fill="#e5bca4" stroke="#e5bca4" stroke-width="1.51"/><path d="M462,-101L462,94L533,-67Z" fill="#e1903c" stroke="#e1903c" stroke-width="1.51"/><path d="M403,140L506,314L551,220Z" fill="#fdb864" stroke="#fdb864" stroke-width="1.51"/><path d="M403,140L392,333L506,314Z" fill="#fbb766" stroke="#fbb766" stroke-width="1.51"/><path d="M205,-213L331,-155L459,-199Z" fill="#bd6d1f" stroke="#bd6d1f" stroke-width="1.51"/><path d="M386,903L379,1051L501,1031Z" fill="#c59084" stroke="#c59084" stroke-width="1.51"/><path d="M392,333L500,410L506,314Z" fill="#fec682" stroke="#fec682" stroke-width="1.51"/><path d="M393,641L428,761L517,700Z" fill="#efc4a2" stroke="#efc4a2" stroke-width="1.51"/><path d="M428,761L386,903L511,860Z" fill="#deae98" stroke="#deae98" stroke-width="1.51"/><path d="M260,-47L462,94L462,-101Z" fill="#dd872e" stroke="#dd872e" stroke-width="1.51"/><path d="M379,1051L455,1123L501,1031Z" fill="#bb8180" stroke="#bb8180" stroke-width="1.51"/><path d="M392,333L396,448L500,410Z" fill="#fdc788" stroke="#fdc788" stroke-width="1.51"/><path d="M319,1002L379,1051L386,903Z" fill="#c38b7d" stroke="#c38b7d" stroke-width="1.51"/><path d="M326,166L392,333L403,140Z" fill="#f6a950" stroke="#f6a950" stroke-width="1.51"/><path d="M260,84L403,140L462,94Z" fill="#ec9737" stroke="#ec9737" stroke-width="1.51"/><path d="M260,-47L260,84L462,94Z" fill="#e28825" stroke="#e28825" stroke-width="1.51"/><path d="M331,-155L260,-47L462,-101Z" fill="#cd7823" stroke="#cd7823" stroke-width="1.51"/><path d="M459,-199L331,-155L462,-101Z" fill="#c97a2d" stroke="#c97a2d" stroke-width="1.51"/><path d="M315,788L386,903L428,761Z" fill="#deab90" stroke="#deab90" stroke-width="1.51"/><path d="M267,1140L419,1222L455,1123Z" fill="#ac616f" stroke="#ac616f" stroke-width="1.51"/><path d="M379,1051L267,1140L455,1123Z" fill="#b36f72" stroke="#b36f72" stroke-width="1.51"/><path d="M326,166L307,321L392,333Z" fill="#f7ae5b" stroke="#f7ae5b" stroke-width="1.51"/><path d="M392,333L332,433L396,448Z" fill="#fbc182" stroke="#fbc182" stroke-width="1.51"/><path d="M393,641L315,788L428,761Z" fill="#e9b897" stroke="#e9b897" stroke-width="1.51"/><path d="M256,703L315,788L393,641Z" fill="#e8b590" stroke="#e8b590" stroke-width="1.51"/><path d="M260,84L326,166L403,140Z" fill="#ec9636" stroke="#ec9636" stroke-width="1.51"/><path d="M267,1140L306,1291L419,1222Z" fill="#a0555d" stroke="#a0555d" stroke-width="1.51"/><path d="M302,933L319,1002L386,903Z" fill="#c98f7e" stroke="#c98f7e" stroke-width="1.51"/><path d="M307,321L332,433L392,333Z" fill="#f8b973" stroke="#f8b973" stroke-width="1.51"/><path d="M385,524L270,522L393,641Z" fill="#f8c699" stroke="#f8c699" stroke-width="1.51"/><path d="M332,433L385,524L396,448Z" fill="#fbc58e" stroke="#fbc58e" stroke-width="1.51"/><path d="M315,788L302,933L386,903Z" fill="#d49d85" stroke="#d49d85" stroke-width="1.51"/><path d="M270,522L256,703L393,641Z" fill="#f1bc91" stroke="#f1bc91" stroke-width="1.51"/><path d="M332,433L270,522L385,524Z" fill="#f9c28d" stroke="#f9c28d" stroke-width="1.51"/><path d="M319,1002L267,1140L379,1051Z" fill="#b77470" stroke="#b77470" stroke-width="1.51"/><path d="M186,583L256,703L270,522Z" fill="#efb688" stroke="#efb688" stroke-width="1.51"/><path d="M182,148L146,293L307,321Z" fill="#ee9e46" stroke="#ee9e46" stroke-width="1.51"/><path d="M223,819L302,933L315,788Z" fill="#d69c81" stroke="#d69c81" stroke-width="1.51"/><path d="M219,1044L267,1140L319,1002Z" fill="#b56f69" stroke="#b56f69" stroke-width="1.51"/><path d="M182,148L307,321L326,166Z" fill="#ef9d41" stroke="#ef9d41" stroke-width="1.51"/><path d="M205,-213L260,-47L331,-155Z" fill="#c26b13" stroke="#c26b13" stroke-width="1.51"/><path d="M307,321L180,435L332,433Z" fill="#f5b571" stroke="#f5b571" stroke-width="1.51"/><path d="M180,435L270,522L332,433Z" fill="#f6b97d" stroke="#f6b97d" stroke-width="1.51"/><path d="M267,1140L148,1286L306,1291Z" fill="#98484e" stroke="#98484e" stroke-width="1.51"/><path d="M260,84L182,148L326,166Z" fill="#e78e2a" stroke="#e78e2a" stroke-width="1.51"/><path d="M256,703L223,819L315,788Z" fill="#dfa584" stroke="#dfa584" stroke-width="1.51"/><path d="M302,933L219,1044L319,1002Z" fill="#bf8172" stroke="#bf8172" stroke-width="1.51"/><path d="M223,819L190,937L302,933Z" fill="#cd8e76" stroke="#cd8e76" stroke-width="1.51"/><path d="M190,937L219,1044L302,933Z" fill="#c0806e" stroke="#c0806e" stroke-width="1.51"/><path d="M146,293L180,435L307,321Z" fill="#f0aa60" stroke="#f0aa60" stroke-width="1.51"/><path d="M260,-47L176,-19L260,84Z" fill="#d57811" stroke="#d57811" stroke-width="1.51"/><path d="M150,697L223,819L256,703Z" fill="#dfa481" stroke="#dfa481" stroke-width="1.51"/><path d="M186,583L150,697L256,703Z" fill="#e6ac85" stroke="#e6ac85" stroke-width="1.51"/><path d="M205,-213L176,-19L260,-47Z" fill="#c5690c" stroke="#c5690c" stroke-width="1.51"/><path d="M176,-19L166,43L260,84Z" fill="#d77911" stroke="#d77911" stroke-width="1.51"/><path d="M219,1044L143,1124L267,1140Z" fill="#aa5f60" stroke="#aa5f60" stroke-width="1.51"/><path d="M143,1124L148,1286L267,1140Z" fill="#9c4a56" stroke="#9c4a56" stroke-width="1.51"/><path d="M180,435L186,583L270,522Z" fill="#f3b784" stroke="#f3b784" stroke-width="1.51"/><path d="M166,43L182,148L260,84Z" fill="#df821a" stroke="#df821a" stroke-width="1.51"/><path d="M180,435L55,523L186,583Z" fill="#ecb081" stroke="#ecb081" stroke-width="1.51"/><path d="M79,-37L176,-19L205,-213Z" fill="#c0650a" stroke="#c0650a" stroke-width="1.51"/><path d="M75,-210L79,-37L205,-213Z" fill="#b25c0a" stroke="#b25c0a" stroke-width="1.51"/><path d="M190,937L39,1017L219,1044Z" fill="#b47368" stroke="#b47368" stroke-width="1.51"/><path d="M150,697L38,814L223,819Z" fill="#d4987c" stroke="#d4987c" stroke-width="1.51"/><path d="M38,814L65,886L223,819Z" fill="#c98d76" stroke="#c98d76" stroke-width="1.51"/><path d="M65,886L190,937L223,819Z" fill="#c88a75" stroke="#c88a75" stroke-width="1.51"/><path d="M39,1017L143,1124L219,1044Z" fill="#aa6361" stroke="#aa6361" stroke-width="1.51"/><path d="M57,218L146,293L182,148Z" fill="#e4913a" stroke="#e4913a" stroke-width="1.51"/><path d="M143,1124L29,1260L148,1286Z" fill="#8f3e4b" stroke="#8f3e4b" stroke-width="1.51"/><path d="M146,293L36,341L180,435Z" fill="#e7a25e" stroke="#e7a25e" stroke-width="1.51"/><path d="M166,43L85,33L182,148Z" fill="#d77a12" stroke="#d77a12" stroke-width="1.51"/><path d="M35,624L150,697L186,583Z" fill="#e2a882" stroke="#e2a882" stroke-width="1.51"/><path d="M65,886L39,1017L190,937Z" fill="#b8796b" stroke="#b8796b" stroke-width="1.51"/><path d="M36,341L20,433L180,435Z" fill="#e5a468" stroke="#e5a468" stroke-width="1.51"/><path d="M55,523L35,624L186,583Z" fill="#e4ab83" stroke="#e4ab83" stroke-width="1.51"/><path d="M20,433L55,523L180,435Z" fill="#e6a874" stroke="#e6a874" stroke-width="1.51"/><path d="M85,33L57,218L182,148Z" fill="#da8123" stroke="#da8123" stroke-width="1.51"/><path d="M85,33L166,43L176,-19Z" fill="#cf720f" stroke="#cf720f" stroke-width="1.51"/><path d="M79,-37L85,33L176,-19Z" fill="#c86c0d" stroke="#c86c0d" stroke-width="1.51"/><path d="M33,1120L29,1260L143,1124Z" fill="#944254" stroke="#944254" stroke-width="1.51"/><path d="M39,1017L33,1120L143,1124Z" fill="#a0575c" stroke="#a0575c" stroke-width="1.51"/><path d="M35,624L38,814L150,697Z" fill="#d69c7d" stroke="#d69c7d" stroke-width="1.51"/><path d="M57,218L36,341L146,293Z" fill="#e2954a" stroke="#e2954a" stroke-width="1.51"/><path d="M35,624L-17,809L38,814Z" fill="#cc9278" stroke="#cc9278" stroke-width="1.51"/><path d="M-45,300L36,341L57,218Z" fill="#dc9048" stroke="#dc9048" stroke-width="1.51"/><path d="M-27,880L39,1017L65,886Z" fill="#b4756a" stroke="#b4756a" stroke-width="1.51"/><path d="M-82,-217L-25,-54L75,-210Z" fill="#a55007" stroke="#a55007" stroke-width="1.51"/><path d="M75,-210L-25,-54L79,-37Z" fill="#b45a07" stroke="#b45a07" stroke-width="1.51"/><path d="M-90,160L57,218L85,33Z" fill="#d17922" stroke="#d17922" stroke-width="1.51"/><path d="M-84,28L-90,160L85,33Z" fill="#c66b0d" stroke="#c66b0d" stroke-width="1.51"/><path d="M79,-37L-25,-54L85,33Z" fill="#c0640a" stroke="#c0640a" stroke-width="1.51"/><path d="M-25,-54L-84,28L85,33Z" fill="#be630a" stroke="#be630a" stroke-width="1.51"/><path d="M-99,650L-17,809L35,624Z" fill="#cd967b" stroke="#cd967b" stroke-width="1.51"/><path d="M-83,1150L29,1260L33,1120Z" fill="#8c3b50" stroke="#8c3b50" stroke-width="1.51"/><path d="M-22,502L35,624L55,523Z" fill="#e0a781" stroke="#e0a781" stroke-width="1.51"/><path d="M20,433L-22,502L55,523Z" fill="#e0a376" stroke="#e0a376" stroke-width="1.51"/><path d="M38,814L-27,880L65,886Z" fill="#bf8271" stroke="#bf8271" stroke-width="1.51"/><path d="M-75,1026L33,1120L39,1017Z" fill="#9e595c" stroke="#9e595c" stroke-width="1.51"/><path d="M-27,880L-75,1026L39,1017Z" fill="#a86a63" stroke="#a86a63" stroke-width="1.51"/><path d="M-90,160L-45,300L57,218Z" fill="#d58537" stroke="#d58537" stroke-width="1.51"/><path d="M-31,459L-22,502L20,433Z" fill="#dda071" stroke="#dda071" stroke-width="1.51"/><path d="M-45,300L-31,459L20,433Z" fill="#db9b64" stroke="#db9b64" stroke-width="1.51"/><path d="M-83,1150L-98,1245L29,1260Z" fill="#803347" stroke="#803347" stroke-width="1.51"/><path d="M-22,502L-99,650L35,624Z" fill="#d79f7e" stroke="#d79f7e" stroke-width="1.51"/><path d="M-45,300L20,433L36,341Z" fill="#dd985b" stroke="#dd985b" stroke-width="1.51"/><path d="M-17,809L-27,880L38,814Z" fill="#c08372" stroke="#c08372" stroke-width="1.51"/><path d="M-75,1026L-83,1150L33,1120Z" fill="#934c57" stroke="#934c57" stroke-width="1.51"/><path d="M-45,300L-144,439L-31,459Z" fill="#d59763" stroke="#d59763" stroke-width="1.51"/><path d="M-137,943L-75,1026L-27,880Z" fill="#a56a65" stroke="#a56a65" stroke-width="1.51"/><path d="M-82,-217L-144,-85L-25,-54Z" fill="#a44f07" stroke="#a44f07" stroke-width="1.51"/><path d="M-143,536L-99,650L-22,502Z" fill="#d29e7d" stroke="#d29e7d" stroke-width="1.51"/><path d="M-198,787L-27,880L-17,809Z" fill="#b78071" stroke="#b78071" stroke-width="1.51"/><path d="M-99,650L-198,787L-17,809Z" fill="#be8975" stroke="#be8975" stroke-width="1.51"/><path d="M-90,160L-182,208L-45,300Z" fill="#cc7f35" stroke="#cc7f35" stroke-width="1.51"/><path d="M-198,787L-137,943L-27,880Z" fill="#ad756c" stroke="#ad756c" stroke-width="1.51"/><path d="M-31,459L-143,536L-22,502Z" fill="#d79e77" stroke="#d79e77" stroke-width="1.51"/><path d="M-144,-85L-84,28L-25,-54Z" fill="#b05908" stroke="#b05908" stroke-width="1.51"/><path d="M-152,-199L-144,-85L-82,-217Z" fill="#974908" stroke="#974908" stroke-width="1.51"/><path d="M-144,439L-143,536L-31,459Z" fill="#d29a71" stroke="#d29a71" stroke-width="1.51"/><path d="M-209,301L-144,439L-45,300Z" fill="#cd8d55" stroke="#cd8d55" stroke-width="1.51"/><path d="M-182,208L-209,301L-45,300Z" fill="#c98341" stroke="#c98341" stroke-width="1.51"/><path d="M-143,536L-189,633L-99,650Z" fill="#c7967b" stroke="#c7967b" stroke-width="1.51"/><path d="M-189,633L-198,787L-99,650Z" fill="#be8d78" stroke="#be8d78" stroke-width="1.51"/><path d="M-186,56L-90,160L-84,28Z" fill="#bd6611" stroke="#bd6611" stroke-width="1.51"/><path d="M-144,-85L-186,56L-84,28Z" fill="#b05a0a" stroke="#b05a0a" stroke-width="1.51"/><path d="M-210,1010L-224,1177L-83,1150Z" fill="#834053" stroke="#834053" stroke-width="1.51"/><path d="M-210,1220L-98,1245L-83,1150Z" fill="#793047" stroke="#793047" stroke-width="1.51"/><path d="M-210,1010L-83,1150L-75,1026Z" fill="#905059" stroke="#905059" stroke-width="1.51"/><path d="M-137,943L-210,1010L-75,1026Z" fill="#975f5f" stroke="#975f5f" stroke-width="1.51"/><path d="M-224,1177L-210,1220L-83,1150Z" fill="#79304b" stroke="#79304b" stroke-width="1.51"/><path d="M-186,56L-182,208L-90,160Z" fill="#bf6f22" stroke="#bf6f22" stroke-width="1.51"/><path d="M-198,787L-210,1010L-137,943Z" fill="#9f6a66" stroke="#9f6a66" stroke-width="1.51"/><path d="M-209,301L-189,633L-144,439Z" fill="#c9946c" stroke="#c9946c" stroke-width="1.51"/><path d="M-152,-199L-186,56L-144,-85Z" fill="#a24f08" stroke="#a24f08" stroke-width="1.51"/><path d="M-144,439L-189,633L-143,536Z" fill="#cb9a7c" stroke="#cb9a7c" stroke-width="1.51"/><path d="M-186,56L-209,301L-182,208Z" fill="#bf742c" stroke="#bf742c" stroke-width="1.51"/><path d="M-209,301L-198,787L-189,633Z" fill="#c4957a" stroke="#c4957a" stroke-width="1.51"/><path d="M-224,1177L-210,1010L-209,301Z" fill="#a7766d" stroke="#a7766d" stroke-width="1.51"/><path d="M-209,301L-210,1010L-198,787Z" fill="#b78976" stroke="#b78976" stroke-width="1.51"/></svg>